<svg width="55" height="55" viewBox="0 0 55 55" fill="none" xmlns="http://www.w3.org/2000/svg">
<path d="M27.5002 26.3542C25.9807 26.3542 24.5235 25.7506 23.449 24.6761C22.3746 23.6017 21.771 22.1445 21.771 20.625C21.771 19.1055 22.3746 17.6483 23.449 16.5739C24.5235 15.4994 25.9807 14.8958 27.5002 14.8958C29.0196 14.8958 30.4769 15.4994 31.5513 16.5739C32.6257 17.6483 33.2293 19.1055 33.2293 20.625C33.2293 21.3774 33.0811 22.1224 32.7932 22.8175C32.5053 23.5126 32.0833 24.1441 31.5513 24.6761C31.0193 25.2081 30.3877 25.6302 29.6926 25.9181C28.9975 26.206 28.2525 26.3542 27.5002 26.3542ZM27.5002 4.58334C23.2456 4.58334 19.1654 6.27344 16.157 9.28184C13.1486 12.2902 11.4585 16.3705 11.4585 20.625C11.4585 32.6563 27.5002 50.4167 27.5002 50.4167C27.5002 50.4167 43.5418 32.6563 43.5418 20.625C43.5418 16.3705 41.8517 12.2902 38.8433 9.28184C35.8349 6.27344 31.7547 4.58334 27.5002 4.58334Z" fill="#88B62C"/>
</svg>
