<svg width="57" height="41" viewBox="0 0 57 41" fill="none" xmlns="http://www.w3.org/2000/svg">
<path fill-rule="evenodd" clip-rule="evenodd" d="M18.3215 8.16465C18.3215 5.99925 19.3939 3.92254 21.3028 2.39137C23.2116 0.860202 25.8006 0 28.5001 0C31.1996 0 33.7885 0.860202 35.6974 2.39137C37.6062 3.92254 38.6786 5.99925 38.6786 8.16465C38.6786 10.3301 37.6062 12.4068 35.6974 13.9379C33.7885 15.4691 31.1996 16.3293 28.5001 16.3293C25.8006 16.3293 23.2116 15.4691 21.3028 13.9379C19.3939 12.4068 18.3215 10.3301 18.3215 8.16465ZM38.6786 14.6964C38.6786 12.9641 39.5365 11.3027 41.0636 10.0777C42.5907 8.85281 44.6618 8.16465 46.8214 8.16465C48.981 8.16465 51.0522 8.85281 52.5793 10.0777C54.1064 11.3027 54.9643 12.9641 54.9643 14.6964C54.9643 16.4287 54.1064 18.0901 52.5793 19.315C51.0522 20.5399 48.981 21.2281 46.8214 21.2281C44.6618 21.2281 42.5907 20.5399 41.0636 19.315C39.5365 18.0901 38.6786 16.4287 38.6786 14.6964ZM2.03589 14.6964C2.03589 12.9641 2.89379 11.3027 4.42087 10.0777C5.94794 8.85281 8.0191 8.16465 10.1787 8.16465C12.3383 8.16465 14.4095 8.85281 15.9366 10.0777C17.4636 11.3027 18.3215 12.9641 18.3215 14.6964C18.3215 16.4287 17.4636 18.0901 15.9366 19.315C14.4095 20.5399 12.3383 21.2281 10.1787 21.2281C8.0191 21.2281 5.94794 20.5399 4.42087 19.315C2.89379 18.0901 2.03589 16.4287 2.03589 14.6964ZM13.0558 26.3838C14.712 24.3027 16.9951 22.5898 19.6944 21.4034C22.3937 20.2169 25.4221 19.595 28.5001 19.5952C31.0781 19.5933 33.6277 20.0282 35.9817 20.8714C38.3357 21.7146 40.4412 22.9471 42.1603 24.4882C43.8794 26.0294 45.1733 27.8443 45.9574 29.8144C46.7414 31.7844 46.998 33.8651 46.7101 35.9201C46.675 36.1754 46.5652 36.4205 46.3897 36.6354C46.2143 36.8502 45.9781 37.0289 45.7004 37.1568C40.4659 39.5656 34.5348 40.8299 28.5001 40.8233C22.4654 40.8299 16.5342 39.5656 11.2997 37.1568C11.022 37.0289 10.7858 36.8502 10.6104 36.6354C10.435 36.4205 10.3252 36.1754 10.29 35.9201C9.837 32.5817 10.8123 29.219 13.0558 26.3838Z" fill="#144A36"/>
<path d="M9.72253 24.5027L9.62482 24.6224C7.01712 27.914 5.80692 31.794 6.17498 35.6828C4.54419 35.4846 2.94024 35.1638 1.38428 34.7248L1.07214 34.6377C0.793083 34.5592 0.548664 34.417 0.368834 34.2287C0.189004 34.0403 0.0815756 33.814 0.0597139 33.5774L0.0325712 33.314C0.010857 33.0948 0 32.8764 0 32.6586C0.000164153 30.5566 1.01097 28.5357 2.82199 27.0165C4.63301 25.4973 7.10471 24.5969 9.72253 24.5027ZM50.8275 35.6828C51.1988 31.745 49.9518 27.8181 47.2772 24.5027C48.6429 24.5518 49.9823 24.8211 51.2154 25.2945C52.4486 25.7678 53.5502 26.4356 54.4545 27.258C55.3589 28.0803 56.0475 29.0404 56.4792 30.0809C56.9109 31.1214 57.0769 32.2209 56.9672 33.314L56.9401 33.5774C56.9177 33.8136 56.81 34.0395 56.6302 34.2274C56.4504 34.4153 56.2063 34.5571 55.9276 34.6356L55.6155 34.7227C54.0756 35.161 52.4796 35.4811 50.8275 35.6828Z" fill="#144A36"/>
</svg>
