<svg width="67" height="67" viewBox="0 0 67 67" fill="none" xmlns="http://www.w3.org/2000/svg">
<path d="M53.0417 19.5417H13.9583C12.4775 19.5417 11.0574 20.1299 10.0103 21.177C8.96324 22.2241 8.375 23.6442 8.375 25.125V50.25C8.375 51.7308 8.96324 53.1509 10.0103 54.198C11.0574 55.2451 12.4775 55.8333 13.9583 55.8333H53.0417C54.5225 55.8333 55.9426 55.2451 56.9897 54.198C58.0368 53.1509 58.625 51.7308 58.625 50.25V25.125C58.625 23.6442 58.0368 22.2241 56.9897 21.177C55.9426 20.1299 54.5225 19.5417 53.0417 19.5417ZM26.0072 39.9655L30.4794 43.8738C31.3309 44.6164 32.4085 44.9849 33.5 44.9849C34.5915 44.9849 35.6691 44.6136 36.5206 43.8738L40.9928 39.9655L40.8895 40.0688L51.068 50.2472H15.932L26.1105 40.0688L26.0072 39.9655ZM13.9583 48.2763V29.4242L24.0139 38.2207L13.9583 48.2763ZM42.9861 38.2207L53.0417 29.4242V48.2679L42.9861 38.2207ZM53.0417 25.125V25.7112L34.6837 41.7745C34.3474 42.0427 33.9301 42.1887 33.5 42.1887C33.0699 42.1887 32.6526 42.0427 32.3163 41.7745L13.9583 25.7112V25.125H53.0417Z" fill="#88B62C"/>
</svg>
