<svg width="33" height="33" viewBox="0 0 33 33" fill="none" xmlns="http://www.w3.org/2000/svg">
<path d="M21.1957 4C16.9663 4 13.4348 7.48665 13.4348 11.6622V14.2162H9.36957C9.27155 14.2162 9.17755 14.2547 9.10824 14.3231C9.03894 14.3915 9 14.4843 9 14.5811V20.4189C9 20.6203 9.16557 20.7838 9.36957 20.7838H13.4348V30.6351C13.4348 30.8365 13.6003 31 13.8043 31H19.7174C19.8154 31 19.9094 30.9616 19.9787 30.8931C20.048 30.8247 20.087 30.7319 20.087 30.6351V20.7838H24.1522C24.2346 20.7836 24.3146 20.7561 24.3794 20.7059C24.4442 20.6557 24.4901 20.5855 24.5099 20.5065L25.9882 14.6686C26.0016 14.615 26.0025 14.559 25.9908 14.5049C25.9792 14.4509 25.9552 14.4001 25.9207 14.3566C25.8863 14.313 25.8422 14.2777 25.7919 14.2534C25.7417 14.2291 25.6864 14.2164 25.6304 14.2162H20.087V11.6622C20.0908 11.373 20.2088 11.0968 20.4159 10.8923C20.623 10.6879 20.9028 10.5713 21.1957 10.5676H25.6304C25.7284 10.5676 25.8225 10.5291 25.8918 10.4607C25.9611 10.3923 26 10.2995 26 10.2027V4.36486C26 4.2681 25.9611 4.17529 25.8918 4.10687C25.8225 4.03844 25.7284 4 25.6304 4H21.1957Z" fill="white"/>
</svg>
