<svg width="58" height="54" viewBox="0 0 58 54" fill="none" xmlns="http://www.w3.org/2000/svg">
<g clip-path="url(#clip0_121_12)">
<path d="M17.8694 27C14.615 27.1004 11.9531 28.3862 9.88393 30.8571H5.84598C4.19866 30.8571 2.8125 30.4503 1.6875 29.6367C0.5625 28.8231 0 27.6328 0 26.0658C0 18.9743 1.24554 15.4286 3.73661 15.4286C3.85714 15.4286 4.29408 15.6395 5.04743 16.0614C5.80078 16.4833 6.78013 16.9102 7.98549 17.3421C9.19085 17.774 10.3862 17.99 11.5714 17.99C12.9174 17.99 14.2533 17.7589 15.5792 17.2969C15.4788 18.0402 15.4286 18.7031 15.4286 19.2857C15.4286 22.0781 16.2422 24.6496 17.8694 27ZM50.1429 46.1953C50.1429 48.606 49.4096 50.5095 47.9431 51.9057C46.4766 53.3019 44.5279 54 42.0971 54H15.76C13.3292 54 11.3806 53.3019 9.91406 51.9057C8.44754 50.5095 7.71429 48.606 7.71429 46.1953C7.71429 45.1306 7.74944 44.091 7.81975 43.0765C7.89007 42.0619 8.03069 40.9671 8.24163 39.7919C8.45257 38.6166 8.71875 37.5268 9.04018 36.5223C9.36161 35.5179 9.79353 34.5385 10.3359 33.5843C10.8783 32.63 11.5011 31.8164 12.2042 31.1434C12.9074 30.4704 13.7662 29.933 14.7807 29.5312C15.7952 29.1295 16.9152 28.9286 18.1406 28.9286C18.3415 28.9286 18.7734 29.1445 19.4364 29.5765C20.0993 30.0084 20.8326 30.4905 21.6362 31.0229C22.4397 31.5552 23.5145 32.0374 24.8605 32.4693C26.2065 32.9012 27.5625 33.1172 28.9286 33.1172C30.2946 33.1172 31.6507 32.9012 32.9967 32.4693C34.3426 32.0374 35.4174 31.5552 36.221 31.0229C37.0246 30.4905 37.7578 30.0084 38.4208 29.5765C39.0837 29.1445 39.5156 28.9286 39.7165 28.9286C40.942 28.9286 42.0619 29.1295 43.0765 29.5312C44.091 29.933 44.9498 30.4704 45.6529 31.1434C46.356 31.8164 46.9788 32.63 47.5212 33.5843C48.0636 34.5385 48.4955 35.5179 48.817 36.5223C49.1384 37.5268 49.4046 38.6166 49.6155 39.7919C49.8265 40.9671 49.9671 42.0619 50.0374 43.0765C50.1077 44.091 50.1429 45.1306 50.1429 46.1953ZM19.2857 7.71429C19.2857 9.84375 18.5324 11.6618 17.0257 13.1685C15.519 14.6752 13.7009 15.4286 11.5714 15.4286C9.44196 15.4286 7.62388 14.6752 6.11719 13.1685C4.61049 11.6618 3.85714 9.84375 3.85714 7.71429C3.85714 5.58482 4.61049 3.76674 6.11719 2.26004C7.62388 0.753348 9.44196 0 11.5714 0C13.7009 0 15.519 0.753348 17.0257 2.26004C18.5324 3.76674 19.2857 5.58482 19.2857 7.71429ZM40.5 19.2857C40.5 22.4799 39.37 25.207 37.1099 27.4671C34.8499 29.7271 32.1228 30.8571 28.9286 30.8571C25.7344 30.8571 23.0073 29.7271 20.7472 27.4671C18.4872 25.207 17.3571 22.4799 17.3571 19.2857C17.3571 16.0915 18.4872 13.3644 20.7472 11.1044C23.0073 8.84431 25.7344 7.71429 28.9286 7.71429C32.1228 7.71429 34.8499 8.84431 37.1099 11.1044C39.37 13.3644 40.5 16.0915 40.5 19.2857ZM57.8571 26.0658C57.8571 27.6328 57.2946 28.8231 56.1696 29.6367C55.0446 30.4503 53.6585 30.8571 52.0112 30.8571H47.9732C45.904 28.3862 43.2422 27.1004 39.9877 27C41.615 24.6496 42.4286 22.0781 42.4286 19.2857C42.4286 18.7031 42.3783 18.0402 42.2779 17.2969C43.6038 17.7589 44.9397 17.99 46.2857 17.99C47.471 17.99 48.6663 17.774 49.8717 17.3421C51.077 16.9102 52.0564 16.4833 52.8097 16.0614C53.5631 15.6395 54 15.4286 54.1205 15.4286C56.6116 15.4286 57.8571 18.9743 57.8571 26.0658ZM54 7.71429C54 9.84375 53.2467 11.6618 51.74 13.1685C50.2333 14.6752 48.4152 15.4286 46.2857 15.4286C44.1562 15.4286 42.3382 14.6752 40.8315 13.1685C39.3248 11.6618 38.5714 9.84375 38.5714 7.71429C38.5714 5.58482 39.3248 3.76674 40.8315 2.26004C42.3382 0.753348 44.1562 0 46.2857 0C48.4152 0 50.2333 0.753348 51.74 2.26004C53.2467 3.76674 54 5.58482 54 7.71429Z" fill="#88B62C"/>
</g>
<defs>
<clipPath id="clip0_121_12">
<rect width="57.8571" height="54" fill="white"/>
</clipPath>
</defs>
</svg>
