<svg width="45" height="38" viewBox="0 0 45 38" fill="none" xmlns="http://www.w3.org/2000/svg">
<path d="M43.1755 19.956C37.551 31.0331 23.7823 36.7456 23.1973 36.9913C22.749 37.1512 22.2508 37.1512 21.8025 36.9913C21.24 36.7456 7.44877 31.0331 1.82428 19.956C-1.6629 13.0559 0.271921 5.62347 4.07407 2.42936C5.40587 1.3907 6.98932 0.654292 8.69447 0.280571C10.3996 -0.0931507 12.1778 -0.0935284 13.8832 0.279469C17.3726 1.00135 20.42 2.92363 22.3874 5.64395C24.3585 2.91779 27.4155 0.994521 30.9141 0.279469C32.6195 -0.0935284 34.3977 -0.0931507 36.1028 0.280571C37.808 0.654292 39.3914 1.3907 40.7232 2.42936C44.7279 5.62347 46.6852 13.0559 43.1755 19.956Z" fill="#144A36"/>
</svg>
