<svg width="33" height="33" viewBox="0 0 33 33" fill="none" xmlns="http://www.w3.org/2000/svg">
<path fill-rule="evenodd" clip-rule="evenodd" d="M10.2644 1.46575C11.8772 1.3915 12.3915 1.375 16.5 1.375C20.6085 1.375 21.1228 1.39287 22.7343 1.46575C24.3458 1.53862 25.4457 1.79575 26.4082 2.16838C27.4161 2.54925 28.3305 3.14462 29.0868 3.91462C29.8567 4.6695 30.4508 5.5825 30.8303 6.59175C31.2043 7.55425 31.46 8.65425 31.5343 10.263C31.6085 11.8786 31.625 12.3929 31.625 16.5C31.625 20.6071 31.6071 21.1227 31.5343 22.7356C31.4614 24.3444 31.2043 25.4444 30.8303 26.4069C30.4506 27.4162 29.8556 28.3307 29.0868 29.0868C28.3305 29.8567 27.4161 30.4508 26.4082 30.8303C25.4457 31.2043 24.3457 31.46 22.737 31.5343C21.1227 31.6085 20.6085 31.625 16.5 31.625C12.3915 31.625 11.8772 31.6071 10.2644 31.5343C8.65563 31.4614 7.55562 31.2043 6.59313 30.8303C5.58383 30.4506 4.66934 29.8556 3.91325 29.0868C3.14405 28.3312 2.54862 27.4172 2.16838 26.4082C1.79575 25.4457 1.54 24.3457 1.46575 22.737C1.3915 21.1214 1.375 20.6071 1.375 16.5C1.375 12.3929 1.39287 11.8772 1.46575 10.2657C1.53862 8.65425 1.79575 7.55425 2.16838 6.59175C2.54903 5.58269 3.14493 4.66867 3.91462 3.91325C4.66978 3.14421 5.58331 2.5488 6.59175 2.16838C7.55425 1.79575 8.65563 1.54 10.2644 1.46575ZM22.6105 4.18825C21.0155 4.11538 20.537 4.10025 16.4986 4.10025C12.4602 4.10025 11.9817 4.11538 10.3868 4.18825C8.91138 4.25563 8.11112 4.50175 7.57763 4.70937C6.87225 4.98438 6.36762 5.31025 5.83825 5.83963C5.336 6.32746 4.94974 6.92189 4.708 7.579C4.50038 8.1125 4.25425 8.91275 4.18688 10.3881C4.114 11.9831 4.09888 12.4616 4.09888 16.5C4.09888 20.5384 4.114 21.0169 4.18688 22.6119C4.25425 24.0872 4.50038 24.8875 4.708 25.421C4.95 26.0769 5.33637 26.6723 5.83825 27.1604C6.32637 27.6623 6.92175 28.0486 7.57763 28.2906C8.11112 28.4983 8.91138 28.7444 10.3868 28.8118C11.9817 28.8846 12.4589 28.8997 16.4986 28.8997C20.5384 28.8997 21.0155 28.8846 22.6105 28.8118C24.0859 28.7444 24.8861 28.4983 25.4196 28.2906C26.125 28.0156 26.6296 27.6898 27.159 27.1604C27.6609 26.6723 28.0472 26.0769 28.2892 25.421C28.4969 24.8875 28.743 24.0872 28.8104 22.6119C28.8832 21.0169 28.8984 20.5384 28.8984 16.5C28.8984 12.4616 28.8832 11.9831 28.8104 10.3881C28.743 8.91275 28.4969 8.1125 28.2892 7.579C28.0142 6.87363 27.6884 6.369 27.159 5.83963C26.6712 5.33738 26.0767 4.95112 25.4196 4.70937C24.8861 4.50175 24.0859 4.25563 22.6105 4.18825ZM14.5667 21.1626C15.6457 21.6117 16.847 21.6724 17.9657 21.3341C19.0843 20.9959 20.0508 20.2798 20.7001 19.3081C21.3494 18.3364 21.6412 17.1694 21.5257 16.0065C21.4102 14.8436 20.8945 13.7568 20.0667 12.9319C19.5391 12.4045 18.901 12.0007 18.1986 11.7496C17.4961 11.4984 16.7467 11.4061 16.0043 11.4793C15.2619 11.5526 14.545 11.7895 13.9051 12.1731C13.2653 12.5566 12.7184 13.0773 12.3039 13.6975C11.8894 14.3178 11.6176 15.0223 11.5081 15.7602C11.3985 16.4981 11.454 17.2512 11.6704 17.9651C11.8868 18.679 12.2588 19.3361 12.7596 19.889C13.2604 20.4419 13.8776 20.8769 14.5667 21.1626ZM11.0027 11.0027C11.7247 10.2808 12.5817 9.70819 13.5249 9.3175C14.4681 8.9268 15.4791 8.72571 16.5 8.72571C17.5209 8.72571 18.5319 8.9268 19.4751 9.3175C20.4183 9.70819 21.2753 10.2808 21.9972 11.0027C22.7192 11.7247 23.2918 12.5817 23.6825 13.5249C24.0732 14.4681 24.2743 15.4791 24.2743 16.5C24.2743 17.5209 24.0732 18.5319 23.6825 19.4751C23.2918 20.4183 22.7192 21.2753 21.9972 21.9972C20.5393 23.4552 18.5619 24.2743 16.5 24.2743C14.4381 24.2743 12.4607 23.4552 11.0027 21.9972C9.54479 20.5393 8.72571 18.5619 8.72571 16.5C8.72571 14.4381 9.54479 12.4607 11.0027 11.0027ZM25.9985 9.8835C26.1774 9.71475 26.3206 9.51181 26.4197 9.28671C26.5187 9.06162 26.5716 8.81893 26.5752 8.57303C26.5788 8.32713 26.533 8.083 26.4405 7.85511C26.3481 7.62722 26.2108 7.4202 26.0369 7.2463C25.863 7.07241 25.656 6.93517 25.4281 6.84271C25.2002 6.75026 24.9561 6.70447 24.7102 6.70805C24.4643 6.71164 24.2216 6.76452 23.9965 6.86358C23.7714 6.96264 23.5685 7.10586 23.3997 7.28475C23.0716 7.63267 22.8919 8.09479 22.8988 8.57303C22.9058 9.05127 23.0989 9.50796 23.4371 9.84616C23.7753 10.1844 24.232 10.3774 24.7102 10.3844C25.1885 10.3914 25.6506 10.2117 25.9985 9.8835Z" fill="white"/>
</svg>
