<svg width="169" height="169" viewBox="0 0 169 169" fill="none" xmlns="http://www.w3.org/2000/svg">
<path d="M102.5 53.2083C102.5 43.8705 98.7905 34.9151 92.1876 28.3123C85.5848 21.7094 76.6294 18 67.2916 18C57.9538 18 48.9984 21.7094 42.3955 28.3123C35.7927 34.9151 32.0833 43.8705 32.0833 53.2083C32.0833 62.5462 35.7927 71.5015 42.3955 78.1044C48.9984 84.7072 57.9538 88.4167 67.2916 88.4167C76.6294 88.4167 85.5848 84.7072 92.1876 78.1044C98.7905 71.5015 102.5 62.5462 102.5 53.2083Z" stroke="#88B62C" stroke-width="10" stroke-linecap="round" stroke-linejoin="round"/>
<path d="M18 137.708C17.9983 129.392 20.1008 121.21 24.1117 113.925C28.1227 106.64 33.9117 100.488 40.9399 96.0418C47.968 91.5958 56.0069 89.0003 64.308 88.4969C72.6092 87.9935 80.9027 89.5986 88.4167 93.1628M123.625 151.792C123.625 151.792 151.792 138.743 151.792 117.562C151.792 109.246 145.863 102.5 137.708 102.5C131.04 102.5 126.59 105.401 123.625 111.196C120.66 105.401 116.21 102.5 109.542 102.5C101.387 102.5 95.4583 109.246 95.4583 117.562C95.4583 138.743 123.625 151.792 123.625 151.792Z" stroke="#88B62C" stroke-width="10" stroke-linecap="round" stroke-linejoin="round"/>
</svg>
