<svg width="398" height="281" viewBox="0 0 398 281" fill="none" xmlns="http://www.w3.org/2000/svg">
<g clip-path="url(#clip0_480_2)">
<path d="M59.3708 133.896L154.638 235.622C158.402 239.626 163.309 242.372 168.69 243.486C174.071 244.599 179.665 244.026 184.708 241.844C189.752 239.662 193.999 235.977 196.872 231.293C199.745 226.608 201.104 221.152 200.762 215.667L197.32 163.408C197.267 162.155 197.464 160.905 197.899 159.729C198.334 158.554 198.999 157.476 199.855 156.561L236.495 119.138C239.604 115.953 241.868 112.041 243.081 107.758C244.294 103.475 244.417 98.957 243.44 94.6143C242.463 90.2716 240.416 86.242 237.485 82.8916C234.554 79.5412 230.833 76.9764 226.659 75.4301C222.735 74.0218 218.545 73.509 214.397 73.9293L75.8552 89.1071C70.9363 89.6582 66.2672 91.5651 62.3689 94.6151C58.4706 97.6651 55.4964 101.738 53.7781 106.38C52.0598 111.022 51.6651 116.05 52.6379 120.903C53.6107 125.756 55.9128 130.244 59.2873 133.865L59.3708 133.896ZM77.8376 106.836L216.379 91.6583C218.187 91.4895 220.003 91.8774 221.585 92.7701C223.166 93.6629 224.436 95.0177 225.226 96.6529C226.015 98.2882 226.286 100.126 226.001 101.919C225.717 103.712 224.89 105.376 223.634 106.687L187.078 144.14C186.598 144.643 186.148 145.174 185.73 145.73L128.196 124.433C125.981 123.613 123.532 123.707 121.386 124.693C119.24 125.679 117.574 127.477 116.755 129.692C115.935 131.907 116.028 134.356 117.015 136.502C118.001 138.648 119.799 140.314 122.014 141.133L179.548 162.431C179.503 163.125 179.499 163.821 179.536 164.515L182.894 216.744C182.995 218.557 182.538 220.357 181.587 221.904C180.635 223.45 179.233 224.668 177.569 225.396C175.905 226.123 174.059 226.324 172.278 225.972C170.496 225.62 168.865 224.732 167.603 223.426L72.3356 121.7C71.2272 120.493 70.4734 119.003 70.1572 117.395C69.841 115.787 69.9748 114.123 70.5437 112.586C71.1126 111.049 72.0945 109.699 73.3815 108.685C74.6684 107.67 76.2104 107.031 77.8376 106.836Z" fill="#88B62C"/>
</g>
<g clip-path="url(#clip1_480_2)">
<path d="M378.987 168.382L367.086 180.412C355.627 191.997 349.892 197.795 344.304 201.859C313.528 224.234 271.188 223.766 239.436 200.711C233.661 196.523 223.112 186.087 211.137 174.242" stroke="#88B62C" stroke-width="8" stroke-linecap="round" stroke-linejoin="round"/>
</g>
<defs>
<clipPath id="clip0_480_2">
<rect width="213.697" height="213.697" fill="white" transform="translate(200.408 274.592) rotate(-159.687)"/>
</clipPath>
<clipPath id="clip1_480_2">
<rect width="166.981" height="166.981" fill="white" transform="translate(397.302 120.211) rotate(106.237)"/>
</clipPath>
</defs>
</svg>
