<svg width="99" height="46" viewBox="0 0 99 46" fill="none" xmlns="http://www.w3.org/2000/svg">
<g filter="url(#filter0_d_587_34)">
<path d="M5 2C5 0.895431 5.89543 0 7 0H91.7018C93.5455 0 94.4072 2.28276 93.0234 3.5011L78.2605 16.4989C77.356 17.2953 77.356 18.7047 78.2605 19.5011L93.0234 32.4989C94.4072 33.7172 93.5455 36 91.7018 36H7C5.89543 36 5 35.1046 5 34V2Z" fill="#88B62C"/>
</g>
<path d="M36.0043 9.90909V23H34.1889L27.5348 13.3991H27.4134V23H25.4382V9.90909H27.2663L33.9268 19.5227H34.0483V9.90909H36.0043ZM42.9636 23.1982C41.9963 23.1982 41.1632 22.9915 40.4643 22.5781C39.7697 22.1605 39.2328 21.5746 38.8535 20.8203C38.4785 20.0618 38.291 19.1733 38.291 18.1548C38.291 17.1491 38.4785 16.2628 38.8535 15.4957C39.2328 14.7287 39.7612 14.13 40.4387 13.6996C41.1206 13.2692 41.9174 13.054 42.8294 13.054C43.3833 13.054 43.9203 13.1456 44.4402 13.3288C44.96 13.5121 45.4267 13.7997 45.84 14.1918C46.2534 14.5838 46.5794 15.093 46.818 15.7195C47.0566 16.3416 47.176 17.098 47.176 17.9886V18.6662H39.3713V17.2344H45.3031C45.3031 16.7315 45.2008 16.2862 44.9963 15.8984C44.7917 15.5064 44.5041 15.1974 44.1333 14.9716C43.7669 14.7457 43.3365 14.6328 42.8422 14.6328C42.3052 14.6328 41.8365 14.7649 41.4359 15.0291C41.0396 15.2891 40.7328 15.63 40.5154 16.0518C40.3024 16.4695 40.1958 16.9233 40.1958 17.4134V18.532C40.1958 19.1882 40.3109 19.7464 40.541 20.2067C40.7754 20.6669 41.1014 21.0185 41.519 21.2614C41.9366 21.5 42.4245 21.6193 42.9828 21.6193C43.345 21.6193 43.6752 21.5682 43.9735 21.4659C44.2718 21.3594 44.5297 21.2017 44.747 20.9929C44.9643 20.7841 45.1305 20.5263 45.2456 20.2195L47.0545 20.5455C46.9096 21.0781 46.6497 21.5447 46.2747 21.9453C45.9039 22.3416 45.4373 22.6506 44.8748 22.8722C44.3166 23.0895 43.6795 23.1982 42.9636 23.1982ZM51.4075 23L48.5183 13.1818H50.4934L52.4174 20.392H52.5133L54.4437 13.1818H56.4189L58.3365 20.3601H58.4324L60.3436 13.1818H62.3187L59.4359 23H57.4863L55.492 15.9112H55.345L53.3507 23H51.4075Z" fill="white"/>
<path d="M6.45282 35.7527L21 35.9994L21.0001 43.4999L15 40.5L6.45282 35.7527Z" fill="#144A36"/>
<defs>
<filter id="filter0_d_587_34" x="0" y="0" width="98.7058" height="46" filterUnits="userSpaceOnUse" color-interpolation-filters="sRGB">
<feFlood flood-opacity="0" result="BackgroundImageFix"/>
<feColorMatrix in="SourceAlpha" type="matrix" values="0 0 0 0 0 0 0 0 0 0 0 0 0 0 0 0 0 0 127 0" result="hardAlpha"/>
<feOffset dy="5"/>
<feGaussianBlur stdDeviation="2.5"/>
<feComposite in2="hardAlpha" operator="out"/>
<feColorMatrix type="matrix" values="0 0 0 0 1 0 0 0 0 1 0 0 0 0 1 0 0 0 0.25 0"/>
<feBlend mode="normal" in2="BackgroundImageFix" result="effect1_dropShadow_587_34"/>
<feBlend mode="normal" in="SourceGraphic" in2="effect1_dropShadow_587_34" result="shape"/>
</filter>
</defs>
</svg>
