<svg width="107" height="107" viewBox="0 0 107 107" fill="none" xmlns="http://www.w3.org/2000/svg">
<circle cx="53.5" cy="53.5" r="53.5" fill="#88B62C"/>
<path d="M62.3334 73.8572V70.3215C62.3334 66.0491 68.7947 62.0081 72.9861 59.125C78.8943 55.0634 82 49.6066 82 43.2143C82 31.4286 68.9442 22.0001 52.5001 22.0001C48.623 21.9923 44.7821 22.5357 41.1981 23.5991C37.6142 24.6624 34.3578 26.2248 31.6163 28.1963C28.8749 30.1677 26.7023 32.5095 25.2236 35.0868C23.745 37.6641 22.9893 40.4263 23.0001 43.2143C23.0001 49.3783 26.239 55.2048 32.014 59.125C36.1829 61.9551 42.6667 66.0049 42.6667 70.3215V73.8572M45.9445 88H59.0556M42.6667 80.9286H62.3334M52.5001 73.8572V55" stroke="white" stroke-width="5" stroke-linecap="round" stroke-linejoin="round"/>
<path d="M58.0514 50.5371C58.0514 50.5371 54.8183 52.5658 52.3398 52.5658C49.8612 52.5658 46.6282 50.5371 46.6282 50.5371" stroke="white" stroke-width="5" stroke-linecap="round" stroke-linejoin="round"/>
</svg>
