<svg width="88" height="69" viewBox="0 0 88 69" fill="none" xmlns="http://www.w3.org/2000/svg">
<ellipse cx="44" cy="34.5" rx="44" ry="34.5" fill="#88B62C"/>
<path d="M44.0001 19.2916C41.4272 19.2905 38.8935 19.9214 36.6215 21.1288C34.3496 22.3362 32.409 24.0831 30.9703 26.2161C29.5316 28.3492 28.6389 30.8029 28.3705 33.3617C28.1022 35.9205 28.4665 38.5061 29.4314 40.8911C29.519 41.0903 29.5657 41.3049 29.5688 41.5224C29.5719 41.74 29.5313 41.9559 29.4494 42.1574C29.3675 42.3589 29.2459 42.5419 29.092 42.6956C28.938 42.8493 28.7548 42.9705 28.5531 43.052C28.3514 43.1336 28.1354 43.1738 27.9179 43.1703C27.7004 43.1668 27.4858 43.1197 27.2869 43.0317C27.0879 42.9438 26.9087 42.8168 26.7597 42.6582C26.6107 42.4997 26.4951 42.3129 26.4197 42.1088C24.7807 38.0553 24.5932 33.5598 25.889 29.3839C27.1847 25.208 29.8841 21.6083 33.5298 19.1945C37.1755 16.7808 41.5435 15.7013 45.8938 16.1391C50.2442 16.5769 54.3095 18.5049 57.4013 21.5966C60.493 24.6883 62.421 28.7537 62.8588 33.1041C63.2965 37.4544 62.2171 41.8224 59.8034 45.4681C57.3896 49.1138 53.7899 51.8132 49.614 53.1089C45.438 54.4046 40.9426 54.2171 36.8891 52.5781C36.4982 52.4105 36.1887 52.0964 36.0269 51.7031C35.8651 51.3099 35.8638 50.8688 36.0235 50.4747C36.1831 50.0805 36.4909 49.7647 36.8808 49.5949C37.2707 49.4251 37.7116 49.4149 38.1089 49.5665C40.2567 50.4334 42.5697 50.8146 44.8822 50.6829C47.1946 50.5511 49.4493 49.9095 51.4847 48.8042C53.5202 47.6989 55.286 46.1571 56.6557 44.2893C58.0254 42.4215 58.9651 40.2739 59.4075 38.0004C59.8499 35.7268 59.7841 33.3836 59.2147 31.1384C58.6453 28.8933 57.5865 26.8019 56.1141 25.014C54.6416 23.226 52.792 21.7858 50.6977 20.7966C48.6034 19.8073 46.3163 19.2934 44.0001 19.2916Z" fill="white"/>
<path d="M31.5416 35C31.5416 37.8535 32.5014 40.4839 34.1156 42.5855L33.0994 43.6017L33.0366 43.6667H30.5016C29.6399 43.6674 28.8138 44.0104 28.2049 44.62L24.6581 48.1669C24.4311 48.3941 24.2766 48.6835 24.214 48.9986C24.1514 49.3136 24.1836 49.6401 24.3065 49.9369C24.4294 50.2336 24.6374 50.4873 24.9044 50.6659C25.1713 50.8444 25.4852 50.9399 25.8064 50.9402H28.0598V53.1935C28.06 53.5147 28.1555 53.8286 28.3341 54.0956C28.5127 54.3625 28.7663 54.5706 29.0631 54.6935C29.3599 54.8164 29.6864 54.8485 30.0014 54.7859C30.3164 54.7234 30.6058 54.5688 30.8331 54.3419L34.3799 50.7929C34.9891 50.1845 35.3319 49.3593 35.3333 48.4984V45.9634L35.3983 45.9005L36.4144 44.8865C38.6453 46.5988 41.3899 47.506 44.2018 47.4604C47.0137 47.4148 49.7275 46.4192 51.9017 44.6355C54.076 42.8518 55.5827 40.3849 56.177 37.6362C56.7712 34.8874 56.4179 32.0184 55.1747 29.4959C53.9314 26.9734 51.8712 24.9457 49.3292 23.7427C46.7872 22.5397 43.913 22.2322 41.174 22.8701C38.4351 23.508 35.9925 25.0538 34.2436 27.2562C32.4947 29.4585 31.5424 32.1877 31.5416 35ZM43.9999 25.7917C45.445 25.7921 46.8697 26.1326 48.1587 26.7856C49.4478 27.4387 50.5651 28.3859 51.4202 29.5508C52.2754 30.7157 52.8444 32.0655 53.0812 33.491C53.318 34.9165 53.216 36.3777 52.7834 37.7565C52.3508 39.1353 51.5998 40.3929 50.5911 41.4277C49.5825 42.4625 48.3444 43.2453 46.9771 43.7129C45.6098 44.1805 44.1516 44.3198 42.7205 44.1194C41.2894 43.919 39.9256 43.3847 38.7393 42.5595L42.3056 38.991C43.2314 39.3838 44.2651 39.4424 45.2294 39.1566C46.1936 38.8708 47.0285 38.2586 47.5908 37.4247C48.1531 36.5909 48.4079 35.5874 48.3114 34.5864C48.215 33.5853 47.7734 32.6489 47.0622 31.9377C46.3511 31.2266 45.4147 30.7849 44.4136 30.6885C43.4125 30.5921 42.409 30.8468 41.5752 31.4092C40.7414 31.9715 40.1291 32.8063 39.8434 33.7706C39.5576 34.7349 39.6161 35.7685 40.0089 36.6944L36.4383 40.2585C35.4775 38.8774 34.9135 37.2595 34.8075 35.5805C34.7014 33.9015 35.0574 32.2255 35.8367 30.7345C36.616 29.2435 37.7889 27.9945 39.2281 27.1231C40.6672 26.2517 42.3175 25.7912 43.9999 25.7917ZM33.0366 45.8334L33.1666 45.9612V48.4962C33.166 48.7833 33.0514 49.0583 32.8481 49.261L30.2264 51.8827V49.8569C30.2264 49.5695 30.1123 49.294 29.9091 49.0908C29.706 48.8877 29.4304 48.7735 29.1431 48.7735H27.1151L29.7368 46.1519C29.8374 46.0509 29.9569 45.9708 30.0885 45.9162C30.2201 45.8615 30.3613 45.8334 30.5038 45.8334H33.0366Z" fill="white"/>
</svg>
