<svg width="107" height="107" viewBox="0 0 107 107" fill="none" xmlns="http://www.w3.org/2000/svg">
<circle cx="53.5" cy="53.5" r="53.5" fill="#88B62C"/>
<path d="M53.4999 27.823C49.2943 27.8211 45.1526 28.8523 41.4388 30.826C37.7251 32.7996 34.553 35.6552 32.2012 39.1419C29.8495 42.6285 28.3902 46.6394 27.9516 50.8221C27.513 55.0048 28.1085 59.2312 29.6857 63.1299C29.8289 63.4553 29.9053 63.8062 29.9104 64.1618C29.9154 64.5173 29.849 64.8703 29.7151 65.1997C29.5812 65.5291 29.3826 65.8283 29.1309 66.0795C28.8792 66.3307 28.5797 66.5288 28.2501 66.6621C27.9204 66.7954 27.5673 66.8611 27.2118 66.8554C26.8563 66.8497 26.5055 66.7727 26.1803 66.6289C25.8551 66.4851 25.562 66.2775 25.3185 66.0183C25.0751 65.7592 24.8861 65.4538 24.7628 65.1203C22.0837 58.4943 21.7772 51.146 23.8952 44.3199C26.0133 37.4939 30.4257 31.6097 36.385 27.6642C42.3443 23.7186 49.4843 21.9542 56.5955 22.6698C63.7067 23.3854 70.3519 26.537 75.4057 31.5907C80.4595 36.6445 83.6111 43.2898 84.3266 50.401C85.0422 57.5121 83.2778 64.6521 79.3323 70.6114C75.3867 76.5708 69.5026 80.9832 62.6765 83.1012C55.8505 85.2192 48.5021 84.9127 41.8762 82.2336C41.2373 81.9596 40.7314 81.4461 40.4668 80.8033C40.2023 80.1604 40.2003 79.4395 40.4613 78.7952C40.7222 78.151 41.2253 77.6346 41.8626 77.3571C42.5 77.0796 43.2207 77.0629 43.8701 77.3107C47.381 78.7278 51.1618 79.351 54.9418 79.1355C58.7218 78.9201 62.4073 77.8715 65.7345 76.0647C69.0616 74.2579 71.9481 71.7377 74.187 68.6845C76.426 65.6314 77.962 62.1209 78.6852 58.4046C79.4084 54.6882 79.3007 50.8578 78.37 47.1879C77.4393 43.518 75.7085 40.0993 73.3016 37.1768C70.8948 34.2542 67.8714 31.9 64.448 30.2829C61.0246 28.6658 57.286 27.8258 53.4999 27.823Z" fill="white"/>
<path d="M33.1354 53.5C33.1354 58.1643 34.7044 62.4639 37.3429 65.8993L35.6819 67.5604L35.5791 67.6666H31.4354C30.0269 67.6679 28.6766 68.2284 27.6812 69.225L21.8835 75.0227C21.5125 75.3941 21.2599 75.8672 21.1576 76.3822C21.0553 76.8971 21.1079 77.4309 21.3088 77.9159C21.5096 78.401 21.8497 78.8157 22.2861 79.1076C22.7225 79.3995 23.2356 79.5555 23.7606 79.556H27.4439V83.2393C27.4444 83.7643 27.6004 84.2775 27.8923 84.7138C28.1842 85.1502 28.5989 85.4903 29.084 85.6912C29.5691 85.892 30.1028 85.9446 30.6178 85.8423C31.1327 85.74 31.6058 85.4874 31.9773 85.1164L37.775 79.3152C38.7707 78.3207 39.3311 76.9718 39.3333 75.5645V71.4208L39.4396 71.3181L41.1006 69.6606C44.7473 72.4595 49.2336 73.9424 53.83 73.8679C58.4264 73.7934 62.8623 72.1659 66.4164 69.2503C69.9704 66.3346 72.4334 62.3022 73.4047 57.8091C74.3761 53.3159 73.7987 48.6262 71.7664 44.5029C69.7341 40.3795 66.3665 37.0651 62.2113 35.0986C58.0561 33.1322 53.3579 32.6295 48.8807 33.6722C44.4036 34.7149 40.4109 37.2417 37.5522 40.8417C34.6934 44.4417 33.1368 48.903 33.1354 53.5ZM53.5 38.4479C55.8621 38.4485 58.1909 39.0051 60.298 40.0726C62.4052 41.1401 64.2315 42.6885 65.6293 44.5926C67.0272 46.4967 67.9572 48.7031 68.3443 51.0332C68.7314 53.3634 68.5647 55.752 67.8576 58.0058C67.1505 60.2596 65.9229 62.3153 64.2741 64.0067C62.6253 65.6982 60.6015 66.9778 58.3665 67.7422C56.1315 68.5065 53.7479 68.7342 51.4086 68.4066C49.0693 68.0791 46.84 67.2056 44.9008 65.8568L50.7304 60.0237C52.2438 60.6658 53.9334 60.7615 55.5096 60.2944C57.0858 59.8272 58.4505 58.8264 59.3696 57.4634C60.2888 56.1004 60.7053 54.4602 60.5476 52.8238C60.39 51.1874 59.6681 49.6568 58.5056 48.4943C57.3432 47.3319 55.8126 46.6099 54.1762 46.4523C52.5398 46.2947 50.8995 46.7111 49.5365 47.6303C48.1735 48.5495 47.1727 49.9141 46.7056 51.4903C46.2385 53.0665 46.3341 54.7561 46.9762 56.2695L41.1396 62.0956C39.5691 59.838 38.6472 57.1934 38.4738 54.4488C38.3005 51.7042 38.8823 48.9646 40.1562 46.5274C41.4301 44.0902 43.3474 42.0486 45.6998 40.6242C48.0522 39.1998 50.7499 38.4471 53.5 38.4479ZM35.5791 71.2083L35.7916 71.4172V75.561C35.7906 76.0303 35.6034 76.4799 35.271 76.8112L30.9856 81.0966V77.7852C30.9856 77.3155 30.799 76.8651 30.4669 76.533C30.1348 76.2009 29.6844 76.0143 29.2148 76.0143H25.8998L30.1852 71.7289C30.3497 71.5639 30.5451 71.433 30.7602 71.3437C30.9753 71.2544 31.206 71.2083 31.4389 71.2083H35.5791Z" fill="white"/>
</svg>
