<svg width="88" height="69" viewBox="0 0 88 69" fill="none" xmlns="http://www.w3.org/2000/svg">
<ellipse cx="44" cy="34.5" rx="44" ry="34.5" fill="#88B62C"/>
<path d="M46.4287 32.2681C47.5491 32.2681 48.4573 31.3159 48.4573 30.1413C48.4573 28.9667 47.5491 28.0145 46.4287 28.0145C45.3084 28.0145 44.4001 28.9667 44.4001 30.1413C44.4001 31.3159 45.3084 32.2681 46.4287 32.2681Z" stroke="#F7F1E6" stroke-width="3" stroke-linecap="round" stroke-linejoin="round"/>
<path d="M44.4002 45.029C51.1223 45.029 56.5716 39.3158 56.5716 32.2682C56.5716 25.2206 51.1223 19.5073 44.4002 19.5073C37.6781 19.5073 32.2288 25.2206 32.2288 32.2682C32.2288 39.3158 37.6781 45.029 44.4002 45.029Z" stroke="#F7F1E6" stroke-width="3" stroke-linecap="round" stroke-linejoin="round"/>
<path d="M16 32.2681C16 32.2681 26.1429 11 44.4 11C62.6572 11 72.8001 32.2681 72.8001 32.2681C72.8001 32.2681 62.6572 53.5362 44.4 53.5362C26.1429 53.5362 16 32.2681 16 32.2681Z" stroke="#F7F1E6" stroke-width="3" stroke-linecap="round" stroke-linejoin="round"/>
</svg>
