<svg width="107" height="107" viewBox="0 0 107 107" fill="none" xmlns="http://www.w3.org/2000/svg">
<circle cx="53.5" cy="53.5" r="53.5" fill="#88B62C"/>
<path d="M56.3931 54.4999C57.9908 54.4999 59.286 53.3582 59.286 51.9499C59.286 50.5416 57.9908 49.3999 56.3931 49.3999C54.7954 49.3999 53.5002 50.5416 53.5002 51.9499C53.5002 53.3582 54.7954 54.4999 56.3931 54.4999Z" stroke="white" stroke-width="5" stroke-linecap="round" stroke-linejoin="round"/>
<path d="M53.5002 69.8002C63.0863 69.8002 70.8574 62.9501 70.8574 54.5002C70.8574 46.0502 63.0863 39.2002 53.5002 39.2002C43.9141 39.2002 36.1431 46.0502 36.1431 54.5002C36.1431 62.9501 43.9141 69.8002 53.5002 69.8002Z" stroke="white" stroke-width="5" stroke-linecap="round" stroke-linejoin="round"/>
<path d="M13 54.5C13 54.5 27.4643 29 53.5 29C79.5357 29 94 54.5 94 54.5C94 54.5 79.5357 80 53.5 80C27.4643 80 13 54.5 13 54.5Z" stroke="white" stroke-width="5" stroke-linecap="round" stroke-linejoin="round"/>
</svg>
