<svg width="79" height="79" viewBox="0 0 79 79" fill="none" xmlns="http://www.w3.org/2000/svg">
<path d="M39.4999 32.9167C35.1549 32.9167 32.9725 34.3025 29.852 39.2498L29.0489 40.5599L27.7487 42.8246L27.2845 43.6607C26.4945 45.0893 25.405 46.1393 23.5353 47.4198L21.7249 48.6212C18.6308 50.6851 17.0113 52.3013 16.106 55.0564C15.6979 56.169 15.4609 57.8642 15.4708 59.2698C15.4708 64.8228 19.4142 69.125 24.6874 69.125L25.484 69.1053C25.8757 69.0855 26.2543 69.0493 26.6493 68.9933L27.4656 68.8518L27.9001 68.7596L28.858 68.5193L29.3912 68.3712L31.2675 67.8116L33.779 67.0117L35.2767 66.5641C37.0213 66.0703 38.3709 65.8333 39.4999 65.8333C40.6323 65.8333 41.9785 66.0736 43.7231 66.5641L45.2208 67.0117L47.7357 67.8083L49.6086 68.3712L50.6356 68.6477C50.9538 68.7267 51.2534 68.7947 51.5343 68.8518L52.3506 68.9933C52.7456 69.0493 53.1241 69.0855 53.5158 69.1053L54.3124 69.125C59.5857 69.125 63.5291 64.8228 63.5291 59.25C63.5291 57.8445 63.2888 56.1591 62.8477 54.9511C62.0709 52.5679 60.6193 50.9254 57.9761 48.9273L57.1301 48.3019L55.3921 47.0511C53.2788 45.504 52.0905 44.3322 51.2676 42.8443L50.3789 41.2479L49.5494 39.8259C46.2215 34.2432 44.2235 32.9167 39.4999 32.9167ZM65.1091 23.0417H65.0103C60.9978 23.1075 57.2749 26.5506 55.4382 31.284C53.1669 37.1267 54.2927 43.529 58.9767 45.5468C59.8194 45.9056 60.7114 46.0833 61.6133 46.0833C65.6654 46.0833 69.4475 42.6172 71.3007 37.841C73.5588 32.0016 72.4199 25.596 67.7589 23.5815C66.9221 23.225 66.0186 23.0414 65.1091 23.0417ZM29.7072 9.875C29.3385 9.875 29.0983 9.88158 28.8185 9.92438L28.5123 9.97704C23.4695 10.6551 20.6222 16.5242 21.5735 22.6664C22.4688 28.3445 26.3859 32.9167 31.1852 32.9167L31.8007 32.9002L32.0772 32.8673L32.38 32.8146C37.4262 32.1365 40.2702 26.2675 39.3189 20.1252C38.4301 14.4405 34.513 9.875 29.7072 9.875Z" fill="#88B62C"/>
<path d="M49.2828 9.87501C44.4802 9.87501 40.5697 14.4438 39.6843 20.122C38.7297 26.2675 41.5737 32.1366 46.8404 32.8508C47.1761 32.8947 47.5009 32.9167 47.8147 32.9167C52.3901 32.9167 56.1854 28.7527 57.2848 23.4268L57.4198 22.6697C58.3744 16.5242 55.5304 10.6551 50.2637 9.94085C49.9388 9.89448 49.6109 9.87248 49.2828 9.87501ZM13.8809 23.0417C12.979 23.0417 12.0902 23.2194 11.2574 23.5716C6.56353 25.596 5.44107 32.0049 7.70903 37.841C9.56224 42.6172 13.3378 46.0833 17.3898 46.0833C18.2917 46.0833 19.1805 45.9056 20.0133 45.5534C24.7072 43.529 25.8297 37.1201 23.5617 31.284C21.7085 26.5078 17.9329 23.0417 13.8809 23.0417Z" fill="#88B62C"/>
</svg>
