<svg width="106" height="90" viewBox="0 0 106 90" fill="none" xmlns="http://www.w3.org/2000/svg">
<ellipse cx="53" cy="45" rx="53" ry="45" fill="#F7F1E6"/>
<path d="M53 4C80.7006 4 102 22.945 102 45C102 67.055 80.7006 86 53 86C25.2994 86 4 67.055 4 45C4 22.945 25.2994 4 53 4Z" stroke="#88B62C" stroke-opacity="0.7" stroke-width="8"/>
<path d="M72.3773 54.6273C71.5351 52.2252 69.5722 51.0078 67.6773 49.8307C66.0283 48.8057 64.4712 47.8372 63.453 46.0982C60.646 41.2815 59.1042 38.375 54.5057 38.375C49.9071 38.375 48.3606 41.2825 45.5469 46.0973C44.5277 47.84 42.9629 48.8105 41.312 49.8374C39.4171 51.0155 37.4581 52.2299 36.613 54.6273C36.2842 55.4918 36.1187 56.4098 36.1249 57.3347C36.1249 61.2337 39.2305 64.4062 42.671 64.4062C46.1115 64.4062 50.644 62.6712 54.5152 62.6712C58.3864 62.6712 62.8558 64.4062 66.3394 64.4062C69.823 64.4062 72.8749 61.2337 72.8749 57.3347C72.8777 56.4093 72.7089 55.4913 72.3773 54.6273Z" fill="#144A36"/>
<path d="M36.8906 47.5625C39.8505 47.5625 42.25 44.4775 42.25 40.6719C42.25 36.8663 39.8505 33.7812 36.8906 33.7812C33.9307 33.7812 31.5312 36.8663 31.5312 40.6719C31.5312 44.4775 33.9307 47.5625 36.8906 47.5625Z" fill="#144A36"/>
<path d="M47.6094 38.375C50.5693 38.375 52.9688 35.29 52.9688 31.4844C52.9688 27.6788 50.5693 24.5938 47.6094 24.5938C44.6495 24.5938 42.25 27.6788 42.25 31.4844C42.25 35.29 44.6495 38.375 47.6094 38.375Z" fill="#144A36"/>
<path d="M61.3906 38.375C64.3505 38.375 66.75 35.29 66.75 31.4844C66.75 27.6788 64.3505 24.5938 61.3906 24.5938C58.4307 24.5938 56.0312 27.6788 56.0312 31.4844C56.0312 35.29 58.4307 38.375 61.3906 38.375Z" fill="#144A36"/>
<path d="M72.1094 47.5625C75.0693 47.5625 77.4688 44.4775 77.4688 40.6719C77.4688 36.8663 75.0693 33.7812 72.1094 33.7812C69.1495 33.7812 66.75 36.8663 66.75 40.6719C66.75 44.4775 69.1495 47.5625 72.1094 47.5625Z" fill="#144A36"/>
</svg>
