<svg width="49" height="49" viewBox="0 0 49 49" fill="none" xmlns="http://www.w3.org/2000/svg">
<path d="M42.3774 34.6273C41.5352 32.2252 39.5723 31.0078 37.6774 29.8307C36.0285 28.8057 34.4714 27.8372 33.4531 26.0982C30.6461 21.2815 29.1043 18.375 24.5058 18.375C19.9073 18.375 18.3607 21.2825 15.547 26.0973C14.5278 27.84 12.963 28.8105 11.3122 29.8374C9.41723 31.0155 7.45819 32.2299 6.61313 34.6273C6.28432 35.4918 6.11882 36.4098 6.12505 37.3347C6.12505 41.2337 9.23061 44.4062 12.6711 44.4062C16.1117 44.4062 20.6442 42.6712 24.5154 42.6712C28.3866 42.6712 32.8559 44.4062 36.3395 44.4062C39.8231 44.4062 42.8751 41.2337 42.8751 37.3347C42.8778 36.4093 42.709 35.4913 42.3774 34.6273Z" fill="#144A36"/>
<path d="M6.89063 27.5625C9.85053 27.5625 12.25 24.4775 12.25 20.6719C12.25 16.8663 9.85053 13.7812 6.89063 13.7812C3.93072 13.7812 1.53125 16.8663 1.53125 20.6719C1.53125 24.4775 3.93072 27.5625 6.89063 27.5625Z" fill="#144A36"/>
<path d="M17.6094 18.375C20.5693 18.375 22.9688 15.29 22.9688 11.4844C22.9688 7.67879 20.5693 4.59375 17.6094 4.59375C14.6495 4.59375 12.25 7.67879 12.25 11.4844C12.25 15.29 14.6495 18.375 17.6094 18.375Z" fill="#144A36"/>
<path d="M31.3906 18.375C34.3505 18.375 36.75 15.29 36.75 11.4844C36.75 7.67879 34.3505 4.59375 31.3906 4.59375C28.4307 4.59375 26.0312 7.67879 26.0312 11.4844C26.0312 15.29 28.4307 18.375 31.3906 18.375Z" fill="#144A36"/>
<path d="M42.1094 27.5625C45.0693 27.5625 47.4688 24.4775 47.4688 20.6719C47.4688 16.8663 45.0693 13.7812 42.1094 13.7812C39.1495 13.7812 36.75 16.8663 36.75 20.6719C36.75 24.4775 39.1495 27.5625 42.1094 27.5625Z" fill="#144A36"/>
</svg>
