<svg width="52" height="52" viewBox="0 0 52 52" fill="none" xmlns="http://www.w3.org/2000/svg">
<path fill-rule="evenodd" clip-rule="evenodd" d="M35.8625 47.9548C32.7425 47.84 23.9003 46.618 14.64 37.3598C5.38184 28.0995 4.162 19.2595 4.045 16.1373C3.87167 11.3793 7.516 6.75784 11.7258 4.95301C12.2328 4.7341 12.7879 4.65076 13.3368 4.71116C13.8857 4.77155 14.4094 4.97361 14.8567 5.29751C18.3233 7.82384 20.7153 11.6458 22.7693 14.651C23.2213 15.3113 23.4145 16.1147 23.3122 16.9082C23.2099 17.7018 22.8193 18.43 22.2147 18.954L17.9875 22.0935C17.7833 22.241 17.6395 22.4576 17.5829 22.703C17.5263 22.9485 17.5608 23.2062 17.6798 23.4282C18.6375 25.168 20.3405 27.7593 22.2905 29.7093C24.2405 31.6593 26.9553 33.475 28.8165 34.541C29.0499 34.672 29.3245 34.7086 29.5841 34.6433C29.8436 34.5781 30.0682 34.4158 30.2118 34.19L32.9635 30.0018C33.4694 29.3298 34.2157 28.8797 35.0461 28.7456C35.8764 28.6115 36.7265 28.8039 37.4182 29.2825C40.4667 31.3928 44.0243 33.7437 46.6287 37.0782C46.9789 37.5286 47.2016 38.0649 47.2737 38.6309C47.3457 39.1969 47.2644 39.7719 47.0382 40.2957C45.2247 44.5272 40.6357 48.1303 35.8625 47.9548Z" fill="#88B62C"/>
</svg>
