<svg width="243" height="87" viewBox="0 0 243 87" fill="none" xmlns="http://www.w3.org/2000/svg">
<path d="M228.496 4.0765C229.291 1.14145 232.311 -0.598721 235.241 0.189724C238.171 0.978169 239.902 3.99666 239.106 6.93171L233.801 5.5041L228.496 4.0765ZM211.474 28.6154L208.181 24.2177V24.2177L211.474 28.6154ZM199.503 40.6402L195.905 36.4891V36.4891L199.503 40.6402ZM181.638 51.9074L184.095 56.8238V56.8238L181.638 51.9074ZM155.034 56.6905L155.457 62.1759L155.034 56.6905ZM140.143 54.8083L141.024 49.3744L140.143 54.8083ZM126.637 53.4175L124.874 58.6342V58.6342L126.637 53.4175ZM120.893 48.2431L116.103 50.9539L120.893 48.2431ZM120.129 41.6056L114.756 40.4572L114.799 40.2572L114.857 40.0609L120.129 41.6056ZM121.898 35.604L116.626 34.0593L116.934 33.0134L117.617 32.163L121.898 35.604ZM132.421 28.004L131.955 22.5223L132.421 28.004ZM142.809 30.0947L144.473 24.8459L145.932 25.3058L146.941 26.4543L142.809 30.0947ZM148.642 44.028L153.348 46.8602V46.8602L148.642 44.028ZM131.746 61.1958L134.023 66.1985V66.1985L131.746 61.1958ZM117.802 64.8779L117.084 59.4242L117.802 64.8779ZM94.7065 66.1787L95.2687 60.7034V60.7034L94.7065 66.1787ZM80.1943 62.984L80.7397 57.507V57.507L80.1943 62.984ZM69.1716 61.1484L67.8193 66.4855L69.1716 61.1484ZM62.0032 59.1382L60.81 64.5128V64.5128L62.0032 59.1382ZM48.2351 56.1083L48.6351 50.6191V50.6191L48.2351 56.1083ZM26.9488 57.7475L28.4819 63.028L26.9488 57.7475ZM10.6481 63.4393L13.1379 68.3389V68.3389L10.6481 63.4393ZM8.36549 64.5381L8.36575 59.0354L8.36549 64.5381ZM13.1669 55.9891L16.9811 59.9419V59.9419L13.1669 55.9891ZM21.8171 45.278L18.3956 40.9798L21.8171 45.278ZM6.06614 63.5396L9.51893 67.8127V67.8127L6.06614 63.5396ZM7.53904 63.3415L6.3536 57.9712L7.53904 63.3415ZM23.2633 68.3069L24.2574 62.8923L24.5283 62.9415L24.7929 63.0175L23.2633 68.3069ZM30.3617 69.0037L30.0455 74.4981L29.9421 74.4924L29.839 74.4828L30.3617 69.0037ZM34.3515 63.8548C37.3425 64.3688 39.3446 67.2137 38.8234 70.209C38.3021 73.2044 35.455 75.2158 32.464 74.7018L33.4078 69.2783L34.3515 63.8548ZM233.801 5.5041L239.106 6.93171C238.691 8.46614 237.888 9.88327 237.148 11.0105C236.362 12.2084 235.402 13.4419 234.379 14.6496C232.331 17.0671 229.784 19.6665 227.254 22.0931C222.215 26.9256 216.844 31.4525 214.768 33.013L211.474 28.6154L208.181 24.2177C209.81 22.9938 214.84 18.7769 219.658 14.1559C222.056 11.8557 224.301 9.55091 226.002 7.54289C226.854 6.5378 227.509 5.6782 227.964 4.98472C228.465 4.22057 228.531 3.94802 228.496 4.0765L233.801 5.5041ZM211.474 28.6154L214.768 33.013C214.627 33.1189 214.24 33.4648 213.47 34.2725C212.738 35.0407 211.916 35.9503 210.864 37.0932C208.829 39.3047 206.206 42.0923 203.101 44.7912L199.503 40.6402L195.905 36.4891C198.525 34.2117 200.807 31.799 202.786 29.6483C203.742 28.61 204.703 27.548 205.524 26.6869C206.307 25.8651 207.241 24.924 208.181 24.2177L211.474 28.6154ZM199.503 40.6402L203.101 44.7912C196.491 50.5366 189.217 54.2498 184.095 56.8238L181.638 51.9074L179.182 46.9909C184.296 44.4207 190.445 41.2352 195.905 36.4891L199.503 40.6402ZM181.638 51.9074L184.095 56.8238C181.575 58.0905 177.619 59.1257 173.041 59.9745C168.287 60.8557 162.327 61.6277 155.457 62.1759L155.034 56.6905L154.611 51.2051C161.193 50.68 166.765 49.9503 171.065 49.1531C175.54 48.3236 178.161 47.5039 179.182 46.9909L181.638 51.9074ZM155.034 56.6905L155.457 62.1759C148.276 62.7488 143.398 60.9038 139.262 60.2423L140.143 54.8083L141.024 49.3744C147.743 50.449 149.129 51.6425 154.611 51.2051L155.034 56.6905ZM140.143 54.8083L139.262 60.2423C137.513 59.9626 135.797 59.9887 133.192 59.9025C130.824 59.8242 127.87 59.6417 124.874 58.6342L126.637 53.4175L128.4 48.2008C129.793 48.6691 131.394 48.8306 133.583 48.903C135.535 48.9675 138.377 48.9511 141.024 49.3744L140.143 54.8083ZM126.637 53.4175L124.874 58.6342C123.703 58.2401 122.678 57.5909 121.968 57.0894C121.186 56.5368 120.422 55.8999 119.734 55.267C118.484 54.1157 116.975 52.5029 116.103 50.9539L120.893 48.2431L125.684 45.5323C125.649 45.47 125.745 45.6391 126.082 46.0274C126.384 46.375 126.77 46.7727 127.189 47.1587C127.612 47.5484 128.009 47.8702 128.323 48.0925C128.71 48.366 128.718 48.3078 128.4 48.2008L126.637 53.4175ZM120.893 48.2431L116.103 50.9539C114.637 48.35 114.409 45.5863 114.419 43.8496C114.424 42.9221 114.499 42.1245 114.574 41.5479C114.612 41.2566 114.651 41.0139 114.684 40.8302C114.7 40.7381 114.715 40.6602 114.727 40.5977C114.733 40.5665 114.739 40.5391 114.743 40.5156C114.746 40.5039 114.748 40.4931 114.75 40.4834C114.751 40.4785 114.752 40.4739 114.753 40.4695C114.754 40.4673 114.754 40.4652 114.754 40.4632C114.755 40.4621 114.755 40.4606 114.755 40.4601C114.755 40.4586 114.756 40.4572 120.129 41.6056C125.502 42.7541 125.502 42.7526 125.503 42.7512C125.503 42.7508 125.503 42.7493 125.503 42.7484C125.504 42.7466 125.504 42.7448 125.504 42.7431C125.505 42.7397 125.506 42.7364 125.507 42.7334C125.508 42.7274 125.509 42.7221 125.51 42.7177C125.512 42.7089 125.513 42.7032 125.513 42.7006C125.514 42.6955 125.513 42.7023 125.51 42.7201C125.503 42.7561 125.49 42.8336 125.476 42.9442C125.446 43.1714 125.415 43.5042 125.413 43.8834C125.408 44.7603 125.562 45.3154 125.684 45.5323L120.893 48.2431ZM120.129 41.6056L114.857 40.0609L116.626 34.0593L121.898 35.604L127.17 37.1487L125.401 43.1503L120.129 41.6056ZM121.898 35.604C117.617 32.163 117.618 32.1622 117.618 32.1613C117.618 32.161 117.619 32.1601 117.62 32.1595C117.621 32.1582 117.622 32.1568 117.623 32.1553C117.625 32.1523 117.628 32.1489 117.631 32.145C117.638 32.1373 117.645 32.1278 117.654 32.1166C117.673 32.0942 117.696 32.065 117.726 32.0294C117.784 31.9583 117.865 31.8615 117.966 31.7426C118.167 31.5051 118.45 31.1771 118.803 30.7873C119.502 30.0142 120.502 28.9661 121.69 27.8879C122.863 26.8236 124.319 25.639 125.935 24.6609C127.492 23.7185 129.581 22.7309 131.955 22.5223L132.421 28.004L132.888 33.4857C132.919 33.483 132.818 33.4885 132.569 33.5847C132.323 33.6795 132.001 33.8361 131.606 34.0747C130.803 34.5609 129.926 35.2502 129.062 36.0336C128.214 36.8031 127.474 37.5766 126.944 38.1632C126.681 38.4533 126.477 38.6897 126.344 38.8466C126.278 38.9248 126.23 38.9827 126.202 39.017C126.188 39.0342 126.179 39.0453 126.175 39.0501C126.173 39.0525 126.172 39.0534 126.173 39.0525C126.173 39.0521 126.174 39.0513 126.175 39.05C126.175 39.0494 126.176 39.0487 126.177 39.0478C126.177 39.0474 126.177 39.0467 126.178 39.0465C126.178 39.0457 126.179 39.045 121.898 35.604ZM132.421 28.004L131.955 22.5223C133.412 22.3942 134.996 22.5941 136.195 22.7924C137.505 23.0092 138.866 23.3156 140.057 23.6121C141.26 23.9114 142.354 24.217 143.144 24.4466C143.541 24.562 143.866 24.6594 144.095 24.7291C144.209 24.7639 144.3 24.7919 144.364 24.8118C144.396 24.8217 144.422 24.8296 144.44 24.8353C144.449 24.8382 144.456 24.8405 144.462 24.8423C144.465 24.8432 144.467 24.8439 144.469 24.8445C144.47 24.8448 144.471 24.8451 144.472 24.8453C144.472 24.8454 144.472 24.8456 144.473 24.8456C144.473 24.8458 144.473 24.8459 142.809 30.0947C141.145 35.3435 141.145 35.3436 141.146 35.3437C141.146 35.3437 141.146 35.3438 141.146 35.3439C141.146 35.344 141.147 35.344 141.147 35.344C141.147 35.3441 141.146 35.3439 141.146 35.3437C141.144 35.3432 141.141 35.3422 141.136 35.3406C141.126 35.3375 141.109 35.3322 141.086 35.325C141.039 35.3106 140.967 35.2883 140.872 35.2595C140.682 35.2016 140.402 35.1176 140.055 35.0167C139.357 34.814 138.405 34.5485 137.378 34.2928C136.34 34.0343 135.288 33.8019 134.375 33.6509C133.92 33.5757 133.545 33.5281 133.252 33.5043C132.937 33.4786 132.835 33.4904 132.888 33.4857L132.421 28.004ZM142.809 30.0947C146.941 26.4543 146.942 26.4551 146.942 26.4559C146.943 26.4562 146.943 26.4571 146.944 26.4578C146.945 26.4591 146.946 26.4605 146.948 26.4621C146.951 26.4653 146.954 26.4692 146.958 26.4736C146.965 26.4824 146.975 26.4935 146.987 26.507C147.01 26.5339 147.041 26.57 147.08 26.6149C147.157 26.7047 147.263 26.8298 147.393 26.9865C147.654 27.2993 148.014 27.7412 148.433 28.2824C149.263 29.3526 150.369 30.8667 151.405 32.5739C152.411 34.2334 153.505 36.3252 154.122 38.5203C154.699 40.5718 155.171 43.8337 153.348 46.8602L148.642 44.028L143.936 41.1959C143.417 42.058 143.811 42.496 143.539 41.5292C143.307 40.7059 142.78 39.5849 142.002 38.3022C141.253 37.0672 140.412 35.9096 139.741 35.0437C139.41 34.6168 139.131 34.2746 138.94 34.0452C138.845 33.9308 138.772 33.8453 138.727 33.7923C138.704 33.7658 138.688 33.7475 138.68 33.7378C138.676 33.7329 138.673 33.7303 138.673 33.7298C138.673 33.7296 138.673 33.7299 138.674 33.7308C138.674 33.7312 138.675 33.7318 138.675 33.7325C138.676 33.7329 138.676 33.7335 138.676 33.7337C138.677 33.7344 138.678 33.7351 142.809 30.0947ZM148.642 44.028L153.348 46.8602C152.707 47.9253 151.319 49.5773 150.017 51.0687C148.561 52.7367 146.736 54.7351 144.858 56.7018C142.987 58.662 141.014 60.6415 139.269 62.2518C138.399 63.0544 137.538 63.8094 136.743 64.4393C136.042 64.9951 135.064 65.7216 134.023 66.1985L131.746 61.1958L129.469 56.1931C129.23 56.3024 129.34 56.2872 129.932 55.8176C130.431 55.422 131.071 54.8678 131.829 54.168C133.341 52.7734 135.137 50.9751 136.919 49.1086C138.695 47.2486 140.408 45.3714 141.746 43.839C142.416 43.0711 142.972 42.4124 143.387 41.8994C143.864 41.308 143.984 41.1161 143.936 41.1959L148.642 44.028ZM131.746 61.1958L134.023 66.1985C129.95 68.0644 124.159 69.5731 118.521 70.3316L117.802 64.8779L117.084 59.4242C122.004 58.7623 126.668 57.4762 129.469 56.1931L131.746 61.1958ZM117.802 64.8779L118.521 70.3316C104.997 72.151 99.7287 72.2145 94.1443 71.6541L94.7065 66.1787L95.2687 60.7034C99.6185 61.1399 103.917 61.1955 117.084 59.4242L117.802 64.8779ZM94.7065 66.1787L94.1443 71.6541C91.7933 71.4182 89.1456 70.5546 87.1688 69.9896C84.9344 69.3509 82.5316 68.7413 79.649 68.461L80.1943 62.984L80.7397 57.507C84.593 57.8816 87.7319 58.6973 90.2125 59.4063C92.9506 60.189 94.191 60.5952 95.2687 60.7034L94.7065 66.1787ZM80.1943 62.984L79.649 68.461C75.4798 68.0557 73.7572 67.935 72.572 67.7189C71.8197 67.5818 71.2054 67.401 70.6487 67.2426C70.0654 67.0767 69.2453 66.8442 67.8193 66.4855L69.1716 61.1484L70.5239 55.8113C72.0976 56.207 73.0343 56.4722 73.6793 56.6557C74.3508 56.8467 74.436 56.8671 74.5687 56.8913C75.1535 56.9979 75.9426 57.0406 80.7397 57.507L80.1943 62.984ZM69.1716 61.1484L67.8193 66.4855C65.3314 65.8599 64.4942 65.5497 63.703 65.267C63.3311 65.1341 62.9198 64.977 60.81 64.5128L62.0032 59.1382L63.1965 53.7635C65.5919 54.2906 66.4794 54.5638 67.4226 54.9009C67.9466 55.0881 68.441 55.2874 70.5239 55.8113L69.1716 61.1484ZM62.0032 59.1382L60.81 64.5128C58.0951 63.9155 55.6433 63.146 53.8468 62.6617C51.9499 62.1503 50.1553 61.7611 47.8351 61.5976L48.2351 56.1083L48.6351 50.6191C51.8899 50.8485 54.4185 51.4107 56.7314 52.0343C59.1447 52.6849 60.7895 53.2339 63.1965 53.7635L62.0032 59.1382ZM48.2351 56.1083L47.8351 61.5976C41.329 61.1391 32.8997 61.7324 28.4819 63.028L26.9488 57.7475L25.4157 52.467C31.5372 50.6717 41.3931 50.1088 48.6351 50.6191L48.2351 56.1083ZM26.9488 57.7475L28.4819 63.028C21.3536 65.1186 18.2391 66.0944 16.5286 66.7242C15.0181 67.2805 14.9588 67.4082 13.1379 68.3389L10.6481 63.4393L8.15832 58.5397C9.42152 57.8941 10.4293 57.2534 12.7564 56.3965C14.8835 55.6132 18.3773 54.5313 25.4157 52.467L26.9488 57.7475ZM10.6481 63.4393L13.1379 68.3389C12.9614 68.4291 12.7672 68.5327 12.533 68.6585C12.3183 68.7739 12.0463 68.9207 11.793 69.052C11.5531 69.1763 11.2105 69.3495 10.8504 69.5017C10.6696 69.578 10.3996 69.6856 10.0791 69.7816C9.83021 69.8562 9.18693 70.0388 8.36524 70.0409L8.36549 64.5381L8.36575 59.0354C7.95354 59.0364 7.626 59.086 7.42802 59.1234C7.21954 59.1627 7.05571 59.2076 6.9515 59.2388C6.84344 59.2712 6.76028 59.3007 6.70826 59.3201C6.65474 59.34 6.61648 59.3558 6.59656 59.3642C6.56014 59.3796 6.55545 59.3829 6.59351 59.3644C6.62871 59.3473 6.68187 59.3207 6.75817 59.2812C6.92015 59.1972 7.10201 59.0992 7.35354 58.9641C7.58555 58.8394 7.86996 58.687 8.15832 58.5397L10.6481 63.4393ZM8.36549 64.5381L8.36524 70.0409C7.32893 70.0435 5.48286 69.8245 3.91206 68.3543C2.2312 66.7811 1.9327 64.7959 1.98108 63.5464C2.06101 61.4824 3.10014 59.6955 3.64078 58.8207C5.00285 56.6167 7.20205 54.116 9.35267 52.0362L13.1669 55.9891L16.9811 59.9419C15.1583 61.7047 13.6735 63.4817 12.9866 64.5933C12.8286 64.8489 12.7774 64.9671 12.7801 64.9607C12.7835 64.9525 12.8175 64.8712 12.8557 64.7266C12.8921 64.5886 12.9528 64.317 12.9673 63.9445C12.9962 63.1959 12.8226 61.6079 11.4318 60.3062C10.1511 59.1076 8.76041 59.0344 8.36575 59.0354L8.36549 64.5381ZM13.1669 55.9891L9.35267 52.0362C11.4982 49.9613 12.62 48.3003 13.6506 46.7087C14.6535 45.1596 16.0048 42.889 18.3956 40.9798L21.8171 45.278L25.2386 49.5761C24.5207 50.1494 24.1271 50.7393 22.8722 52.6775C21.6449 54.5732 19.9959 57.0265 16.9811 59.9419L13.1669 55.9891ZM21.8171 45.278L18.3956 40.9798C18.5844 40.829 18.8176 40.6504 19.0741 40.4781C19.2428 40.3648 19.7781 40.0057 20.5031 39.749C20.8255 39.6348 21.7277 39.3375 22.9029 39.4467C24.383 39.5842 26.2533 40.4085 27.2853 42.3883C28.0857 43.9236 27.9197 45.3335 27.8496 45.7976C27.76 46.3917 27.5934 46.8476 27.5038 47.0744C27.1991 47.845 26.7428 48.4988 26.5952 48.7128C26.3489 49.07 26.0593 49.4573 25.7607 49.843C24.5795 51.369 22.6545 53.6442 20.6003 55.9965C18.5241 58.3739 16.2321 60.9256 14.2735 63.0359C12.4545 64.9957 10.5815 66.9513 9.51893 67.8127L6.06614 63.5396L2.61337 59.2666C2.61135 59.2683 2.71236 59.1835 2.95108 58.9553C3.17094 58.7452 3.44961 58.4693 3.78492 58.1281C4.45493 57.4464 5.28953 56.567 6.22767 55.5562C8.10132 53.5374 10.3185 51.0694 12.3308 48.7651C14.3651 46.4357 16.1079 44.3673 17.0764 43.1161C17.3152 42.8076 17.4682 42.5984 17.5524 42.4764C17.7353 42.2111 17.4974 42.5027 17.2821 43.0476C17.2148 43.2178 17.0624 43.6258 16.9787 44.1808C16.9145 44.6057 16.7461 45.9854 17.5354 47.4995C18.5564 49.458 20.4071 50.2702 21.8586 50.4051C23.0052 50.5117 23.8701 50.2211 24.1459 50.1235C24.7778 49.8997 25.1833 49.6125 25.1836 49.6123C25.2717 49.5531 25.2978 49.5289 25.2386 49.5761L21.8171 45.278ZM6.06614 63.5396L9.51893 67.8127C9.4598 67.8606 9.50173 67.8312 9.59683 67.7358C9.6469 67.6855 9.73685 67.5919 9.84608 67.4586C9.94899 67.333 10.1214 67.1089 10.2999 66.7966C10.4662 66.5057 10.7428 65.9575 10.8918 65.2043C11.0485 64.412 11.0873 63.2421 10.5422 61.9923C10.2764 61.3829 9.91273 60.8544 9.49388 60.4162C9.08178 59.9851 8.64931 59.6752 8.26183 59.4551C7.51999 59.0336 6.84903 58.8865 6.47418 58.8272C6.07399 58.764 5.75079 58.7614 5.55847 58.7666C5.35463 58.7721 5.19375 58.7896 5.09202 58.8032C4.89578 58.8294 4.77019 58.8611 4.74538 58.8674C4.69275 58.8808 4.73066 58.8735 4.85592 58.8266C4.96822 58.7846 5.07614 58.7387 5.14752 58.7054C5.18213 58.6892 5.18604 58.6864 5.16319 58.6986C5.15617 58.7023 5.04504 58.7608 4.88198 58.8711C4.80053 58.9262 4.64311 59.0364 4.45358 59.1986C4.35596 59.2822 4.22304 59.4023 4.07444 59.5579C3.93161 59.7075 3.72437 59.9418 3.51079 60.2576C3.30704 60.5589 3.00329 61.0721 2.79682 61.7732C2.5822 62.5019 2.44309 63.5481 2.75759 64.7304C2.91246 65.3127 3.15907 65.8533 3.47712 66.3355C3.79183 66.8127 4.14967 67.1926 4.49834 67.4889C5.17276 68.062 5.84018 68.3469 6.25987 68.49C6.69514 68.6385 7.06514 68.7023 7.30316 68.733C7.55211 68.7651 7.75923 68.7736 7.9032 68.7754C8.18231 68.7787 8.3928 68.7577 8.48793 68.7469C8.67992 68.725 8.78034 68.6993 8.72447 68.7117L7.53904 63.3415L6.3536 57.9712C6.58881 57.9186 6.91351 57.8528 7.27139 57.812C7.44946 57.7917 7.72829 57.7666 8.06219 57.7706C8.31712 57.7736 9.01041 57.7921 9.8303 58.0718C10.5749 58.3258 12.6894 59.268 13.3824 61.8733C13.6992 63.0647 13.5597 64.1209 13.3418 64.8604C13.1322 65.5724 12.8225 66.0973 12.6102 66.4112C12.2025 67.0141 11.7675 67.4004 11.586 67.5556C11.3597 67.7494 11.1561 67.894 11.0202 67.9859C10.5424 68.309 10.0498 68.5486 9.76936 68.6794C9.42422 68.8403 9.04987 68.9968 8.68131 69.1347C8.32572 69.2677 7.88422 69.4177 7.42071 69.5353C7.19046 69.5937 6.87657 69.6643 6.51758 69.7122C6.23455 69.75 5.55473 69.8282 4.73211 69.6982C4.30562 69.6308 3.5915 69.4703 2.81601 69.0297C1.98134 68.5554 1.03398 67.7236 0.464347 66.4174C-0.0942506 65.1366 -0.0584245 63.9295 0.106982 63.0933C0.264628 62.2963 0.561591 61.6975 0.760884 61.3489C1.14772 60.6722 1.59844 60.1987 1.82238 59.9739C2.09327 59.702 2.3701 59.4638 2.61337 59.2666L6.06614 63.5396ZM7.53904 63.3415L8.72447 68.7117C8.40548 68.7831 8.36991 68.8122 8.49825 68.7593C8.56836 68.7305 8.76616 68.6452 9.02634 68.4791C9.27004 68.3235 9.73426 67.9926 10.1875 67.4175C10.6706 66.8043 11.175 65.8618 11.2768 64.6358C11.3789 63.4058 11.0347 62.3834 10.6434 61.682C9.98853 60.5083 9.09739 60.0215 9.08028 60.0113C8.85642 59.8779 8.95325 59.9711 9.73997 60.2012C10.4017 60.3947 11.2723 60.6066 12.3104 60.8284C16.699 61.766 21.9371 62.4713 24.2574 62.8923L23.2633 68.3069L22.2693 73.7215C20.8715 73.4679 14.438 72.5423 9.98918 71.5918C8.81801 71.3416 7.6564 71.0654 6.6316 70.7657C5.73181 70.5025 4.48784 70.0973 3.43744 69.4712C3.00705 69.2147 1.83121 68.483 1.04129 67.0672C0.582424 66.2448 0.208138 65.102 0.320142 63.7526C0.431806 62.4071 0.986192 61.346 1.56197 60.6153C2.55717 59.3523 3.82656 58.7933 4.34017 58.5819C5.01628 58.3037 5.72022 58.1129 6.3536 57.9712L7.53904 63.3415ZM23.2633 68.3069L24.7929 63.0175C25.8206 63.3129 26.7221 63.4089 27.6011 63.4402C28.0758 63.457 28.4983 63.4548 29.0455 63.4563C29.5265 63.4577 30.2039 63.4611 30.8845 63.5245L30.3617 69.0037L29.839 74.4828C29.7121 74.471 29.4935 74.4633 28.9858 74.4619C28.5444 74.4606 27.8856 74.4638 27.1826 74.4388C25.706 74.3863 23.8658 74.2091 21.7338 73.5963L23.2633 68.3069ZM30.3617 69.0037L30.678 63.5092C31.2222 63.5392 32.4892 63.5347 34.3515 63.8548L33.4078 69.2783L32.464 74.7018C31.4167 74.5217 31.1166 74.5572 30.0455 74.4981L30.3617 69.0037Z" fill="#88B62C"/>
</svg>
