<svg width="243" height="87" viewBox="0 0 243 87" fill="none" xmlns="http://www.w3.org/2000/svg">
<path d="M14.1841 4.0765C13.389 1.14145 10.3691 -0.598721 7.43903 0.189724C4.50898 0.978169 2.77833 3.99666 3.5735 6.93171L8.87881 5.5041L14.1841 4.0765ZM31.2054 28.6154L34.4986 24.2177V24.2177L31.2054 28.6154ZM43.1767 40.6402L46.7748 36.4891V36.4891L43.1767 40.6402ZM61.0414 51.9074L58.5849 56.8238V56.8238L61.0414 51.9074ZM87.646 56.6905L87.2233 62.1759L87.646 56.6905ZM102.537 54.8083L101.656 49.3744L102.537 54.8083ZM116.043 53.4175L117.805 58.6342V58.6342L116.043 53.4175ZM121.786 48.2431L126.577 50.9539L121.786 48.2431ZM122.551 41.6056L127.924 40.4572L127.881 40.2572L127.823 40.0609L122.551 41.6056ZM120.782 35.604L126.054 34.0593L125.746 33.0134L125.063 32.163L120.782 35.604ZM110.258 28.004L110.725 22.5223L110.258 28.004ZM99.8706 30.0947L98.2064 24.8459L96.7482 25.3058L95.739 26.4543L99.8706 30.0947ZM94.0376 44.028L89.3317 46.8602V46.8602L94.0376 44.028ZM110.934 61.1958L108.657 66.1985V66.1985L110.934 61.1958ZM124.878 64.8779L125.596 59.4242L124.878 64.8779ZM147.973 66.1787L147.411 60.7034V60.7034L147.973 66.1787ZM162.486 62.984L161.94 57.507V57.507L162.486 62.984ZM173.508 61.1484L174.861 66.4855L173.508 61.1484ZM180.677 59.1382L181.87 64.5128V64.5128L180.677 59.1382ZM194.445 56.1083L194.045 50.6191V50.6191L194.445 56.1083ZM215.731 57.7475L214.198 63.028L215.731 57.7475ZM232.032 63.4393L229.542 68.3389V68.3389L232.032 63.4393ZM234.314 64.5381L234.314 59.0354L234.314 64.5381ZM229.513 55.9891L225.699 59.9419V59.9419L229.513 55.9891ZM220.863 45.278L224.284 40.9798L220.863 45.278ZM236.614 63.5396L233.161 67.8127V67.8127L236.614 63.5396ZM235.141 63.3415L236.326 57.9712L235.141 63.3415ZM219.417 68.3069L218.422 62.8923L218.152 62.9415L217.887 63.0175L219.417 68.3069ZM212.318 69.0037L212.634 74.4981L212.738 74.4924L212.841 74.4828L212.318 69.0037ZM208.328 63.8548C205.337 64.3688 203.335 67.2137 203.856 70.209C204.378 73.2044 207.225 75.2158 210.216 74.7018L209.272 69.2783L208.328 63.8548ZM8.87881 5.5041L3.5735 6.93171C3.98921 8.46614 4.79166 9.88327 5.53135 11.0105C6.31743 12.2084 7.27737 13.4419 8.30074 14.6496C10.3493 17.0671 12.8962 19.6665 15.4261 22.0931C20.4644 26.9256 25.8358 31.4525 27.9123 33.013L31.2054 28.6154L34.4986 24.2177C32.8699 22.9938 27.8397 18.7769 23.022 14.1559C20.6238 11.8557 18.379 9.55091 16.6774 7.54289C15.8257 6.5378 15.171 5.6782 14.7159 4.98472C14.2145 4.22057 14.1493 3.94802 14.1841 4.0765L8.87881 5.5041ZM31.2054 28.6154L27.9123 33.013C28.0532 33.1189 28.4399 33.4648 29.2095 34.2725C29.9416 35.0407 30.764 35.9503 31.8156 37.0932C33.8505 39.3047 36.4735 42.0923 39.5787 44.7912L43.1767 40.6402L46.7748 36.4891C44.1546 34.2117 41.8726 31.799 39.8936 29.6483C38.9382 28.61 37.9764 27.548 37.1558 26.6869C36.3727 25.8651 35.4384 24.924 34.4986 24.2177L31.2054 28.6154ZM43.1767 40.6402L39.5787 44.7912C46.1889 50.5366 53.4633 54.2498 58.5849 56.8238L61.0414 51.9074L63.4979 46.9909C58.384 44.4207 52.2353 41.2352 46.7748 36.4891L43.1767 40.6402ZM61.0414 51.9074L58.5849 56.8238C61.1053 58.0905 65.0604 59.1257 69.6392 59.9745C74.3928 60.8557 80.3525 61.6277 87.2233 62.1759L87.646 56.6905L88.0688 51.2051C81.4867 50.68 75.9146 49.9503 71.6143 49.1531C67.1394 48.3236 64.5186 47.5039 63.4979 46.9909L61.0414 51.9074ZM87.646 56.6905L87.2233 62.1759C94.4041 62.7488 99.2817 60.9038 103.418 60.2423L102.537 54.8083L101.656 49.3744C94.9369 50.449 93.551 51.6425 88.0688 51.2051L87.646 56.6905ZM102.537 54.8083L103.418 60.2423C105.167 59.9626 106.883 59.9887 109.488 59.9025C111.856 59.8242 114.81 59.6417 117.805 58.6342L116.043 53.4175L114.28 48.2008C112.887 48.6691 111.286 48.8306 109.097 48.903C107.145 48.9675 104.303 48.9511 101.656 49.3744L102.537 54.8083ZM116.043 53.4175L117.805 58.6342C118.977 58.2401 120.002 57.5909 120.712 57.0894C121.494 56.5368 122.258 55.8999 122.946 55.267C124.196 54.1157 125.705 52.5029 126.577 50.9539L121.786 48.2431L116.996 45.5323C117.031 45.47 116.935 45.6391 116.597 46.0274C116.296 46.375 115.91 46.7727 115.491 47.1587C115.068 47.5484 114.671 47.8702 114.356 48.0925C113.969 48.366 113.962 48.3078 114.28 48.2008L116.043 53.4175ZM121.786 48.2431L126.577 50.9539C128.043 48.35 128.271 45.5863 128.261 43.8496C128.256 42.9221 128.181 42.1245 128.106 41.5479C128.068 41.2566 128.029 41.0139 127.996 40.8302C127.98 40.7381 127.965 40.6602 127.953 40.5977C127.947 40.5665 127.941 40.5391 127.936 40.5156C127.934 40.5039 127.932 40.4931 127.93 40.4834C127.929 40.4785 127.928 40.4739 127.927 40.4695C127.926 40.4673 127.926 40.4652 127.925 40.4632C127.925 40.4621 127.925 40.4606 127.925 40.4601C127.924 40.4586 127.924 40.4572 122.551 41.6056C117.178 42.7541 117.177 42.7526 117.177 42.7512C117.177 42.7508 117.177 42.7493 117.177 42.7484C117.176 42.7466 117.176 42.7448 117.175 42.7431C117.175 42.7397 117.174 42.7364 117.173 42.7334C117.172 42.7274 117.171 42.7221 117.17 42.7177C117.168 42.7089 117.167 42.7032 117.167 42.7006C117.166 42.6955 117.167 42.7023 117.17 42.7201C117.176 42.7561 117.189 42.8336 117.204 42.9442C117.233 43.1714 117.265 43.5042 117.267 43.8834C117.272 44.7603 117.118 45.3154 116.996 45.5323L121.786 48.2431ZM122.551 41.6056L127.823 40.0609L126.054 34.0593L120.782 35.604L115.51 37.1487L117.279 43.1503L122.551 41.6056ZM120.782 35.604C125.063 32.163 125.062 32.1622 125.062 32.1613C125.061 32.161 125.061 32.1601 125.06 32.1595C125.059 32.1582 125.058 32.1568 125.057 32.1553C125.054 32.1523 125.052 32.1489 125.049 32.145C125.042 32.1373 125.035 32.1278 125.025 32.1166C125.007 32.0942 124.983 32.065 124.954 32.0294C124.896 31.9583 124.815 31.8615 124.714 31.7426C124.513 31.5051 124.23 31.1771 123.877 30.7873C123.178 30.0142 122.178 28.9661 120.99 27.8879C119.817 26.8236 118.361 25.639 116.745 24.6609C115.188 23.7185 113.099 22.7309 110.725 22.5223L110.258 28.004L109.792 33.4857C109.761 33.483 109.862 33.4885 110.111 33.5847C110.357 33.6795 110.679 33.8361 111.074 34.0747C111.877 34.5609 112.754 35.2502 113.618 36.0336C114.466 36.8031 115.205 37.5766 115.736 38.1632C115.998 38.4533 116.203 38.6897 116.335 38.8466C116.402 38.9248 116.45 38.9827 116.478 39.017C116.492 39.0342 116.501 39.0453 116.505 39.0501C116.507 39.0525 116.508 39.0534 116.507 39.0525C116.507 39.0521 116.506 39.0513 116.505 39.05C116.505 39.0494 116.504 39.0487 116.503 39.0478C116.503 39.0474 116.502 39.0467 116.502 39.0465C116.502 39.0457 116.501 39.045 120.782 35.604ZM110.258 28.004L110.725 22.5223C109.268 22.3942 107.684 22.5941 106.485 22.7924C105.175 23.0092 103.814 23.3156 102.623 23.6121C101.42 23.9114 100.326 24.217 99.5356 24.4466C99.1386 24.562 98.8138 24.6594 98.5849 24.7291C98.4704 24.7639 98.3797 24.7919 98.3157 24.8118C98.2836 24.8217 98.2583 24.8296 98.24 24.8353C98.2308 24.8382 98.2234 24.8405 98.2178 24.8423C98.2149 24.8432 98.2126 24.8439 98.2107 24.8445C98.2097 24.8448 98.2089 24.8451 98.2082 24.8453C98.2078 24.8454 98.2074 24.8456 98.2072 24.8456C98.2067 24.8458 98.2064 24.8459 99.8706 30.0947C101.535 35.3435 101.534 35.3436 101.534 35.3437C101.534 35.3437 101.534 35.3438 101.534 35.3439C101.533 35.344 101.533 35.344 101.533 35.344C101.533 35.3441 101.533 35.3439 101.534 35.3437C101.536 35.3432 101.539 35.3422 101.544 35.3406C101.554 35.3375 101.571 35.3322 101.594 35.325C101.641 35.3106 101.713 35.2883 101.808 35.2595C101.998 35.2016 102.278 35.1176 102.625 35.0167C103.323 34.814 104.275 34.5485 105.302 34.2928C106.34 34.0343 107.392 33.8019 108.305 33.6509C108.76 33.5757 109.135 33.5281 109.428 33.5043C109.743 33.4786 109.845 33.4904 109.792 33.4857L110.258 28.004ZM99.8706 30.0947C95.739 26.4543 95.7383 26.4551 95.7375 26.4559C95.7372 26.4562 95.7365 26.4571 95.7359 26.4578C95.7347 26.4591 95.7335 26.4605 95.7321 26.4621C95.7292 26.4653 95.7259 26.4692 95.7221 26.4736C95.7144 26.4824 95.7047 26.4935 95.693 26.507C95.6696 26.5339 95.6384 26.57 95.5999 26.6149C95.523 26.7047 95.4168 26.8298 95.2864 26.9865C95.026 27.2993 94.666 27.7412 94.2465 28.2824C93.4167 29.3526 92.3105 30.8667 91.2753 32.5739C90.269 34.2334 89.1752 36.3252 88.5576 38.5203C87.9804 40.5718 87.509 43.8337 89.3317 46.8602L94.0376 44.028L98.7436 41.1959C99.2628 42.058 98.8688 42.496 99.1408 41.5292C99.3725 40.7059 99.8999 39.5849 100.678 38.3022C101.427 37.0672 102.267 35.9096 102.939 35.0437C103.27 34.6168 103.549 34.2746 103.74 34.0452C103.835 33.9308 103.908 33.8453 103.953 33.7923C103.976 33.7658 103.992 33.7475 104 33.7378C104.004 33.7329 104.006 33.7303 104.007 33.7298C104.007 33.7296 104.007 33.7299 104.006 33.7308C104.006 33.7312 104.005 33.7318 104.005 33.7325C104.004 33.7329 104.004 33.7335 104.003 33.7337C104.003 33.7344 104.002 33.7351 99.8706 30.0947ZM94.0376 44.028L89.3317 46.8602C89.9732 47.9253 91.3612 49.5773 92.6632 51.0687C94.1192 52.7367 95.9439 54.7351 97.8215 56.7018C99.693 58.662 101.666 60.6415 103.411 62.2518C104.281 63.0544 105.142 63.8094 105.937 64.4393C106.638 64.9951 107.616 65.7216 108.657 66.1985L110.934 61.1958L113.211 56.1931C113.449 56.3024 113.34 56.2872 112.748 55.8176C112.249 55.422 111.609 54.8678 110.851 54.168C109.339 52.7734 107.543 50.9751 105.761 49.1086C103.985 47.2486 102.272 45.3714 100.934 43.839C100.264 43.0711 99.7073 42.4124 99.2931 41.8994C98.8155 41.308 98.6955 41.1161 98.7436 41.1959L94.0376 44.028ZM110.934 61.1958L108.657 66.1985C112.73 68.0644 118.521 69.5731 124.159 70.3316L124.878 64.8779L125.596 59.4242C120.676 58.7623 116.012 57.4762 113.211 56.1931L110.934 61.1958ZM124.878 64.8779L124.159 70.3316C137.683 72.151 142.951 72.2145 148.536 71.6541L147.973 66.1787L147.411 60.7034C143.061 61.1399 138.762 61.1955 125.596 59.4242L124.878 64.8779ZM147.973 66.1787L148.536 71.6541C150.887 71.4182 153.534 70.5546 155.511 69.9896C157.745 69.3509 160.148 68.7413 163.031 68.461L162.486 62.984L161.94 57.507C158.087 57.8816 154.948 58.6973 152.467 59.4063C149.729 60.189 148.489 60.5952 147.411 60.7034L147.973 66.1787ZM162.486 62.984L163.031 68.461C167.2 68.0557 168.923 67.935 170.108 67.7189C170.86 67.5818 171.474 67.401 172.031 67.2426C172.614 67.0767 173.435 66.8442 174.861 66.4855L173.508 61.1484L172.156 55.8113C170.582 56.207 169.645 56.4722 169.001 56.6557C168.329 56.8467 168.244 56.8671 168.111 56.8913C167.526 56.9979 166.737 57.0406 161.94 57.507L162.486 62.984ZM173.508 61.1484L174.861 66.4855C177.348 65.8599 178.186 65.5497 178.977 65.267C179.349 65.1341 179.76 64.977 181.87 64.5128L180.677 59.1382L179.483 53.7635C177.088 54.2906 176.2 54.5638 175.257 54.9009C174.733 55.0881 174.239 55.2874 172.156 55.8113L173.508 61.1484ZM180.677 59.1382L181.87 64.5128C184.585 63.9155 187.037 63.146 188.833 62.6617C190.73 62.1503 192.524 61.7611 194.845 61.5976L194.445 56.1083L194.045 50.6191C190.79 50.8485 188.261 51.4107 185.948 52.0343C183.535 52.6849 181.89 53.2339 179.483 53.7635L180.677 59.1382ZM194.445 56.1083L194.845 61.5976C201.351 61.1391 209.78 61.7324 214.198 63.028L215.731 57.7475L217.264 52.467C211.143 50.6717 201.287 50.1088 194.045 50.6191L194.445 56.1083ZM215.731 57.7475L214.198 63.028C221.326 65.1186 224.441 66.0944 226.151 66.7242C227.662 67.2805 227.721 67.4082 229.542 68.3389L232.032 63.4393L234.522 58.5397C233.258 57.8941 232.251 57.2534 229.923 56.3965C227.796 55.6132 224.303 54.5313 217.264 52.467L215.731 57.7475ZM232.032 63.4393L229.542 68.3389C229.718 68.4291 229.913 68.5327 230.147 68.6585C230.362 68.7739 230.634 68.9207 230.887 69.052C231.127 69.1763 231.469 69.3495 231.829 69.5017C232.01 69.578 232.28 69.6856 232.601 69.7816C232.85 69.8562 233.493 70.0388 234.315 70.0409L234.314 64.5381L234.314 59.0354C234.726 59.0364 235.054 59.086 235.252 59.1234C235.46 59.1627 235.624 59.2076 235.728 59.2388C235.836 59.2712 235.92 59.3007 235.972 59.3201C236.025 59.34 236.063 59.3558 236.083 59.3642C236.12 59.3796 236.124 59.3829 236.086 59.3644C236.051 59.3473 235.998 59.3207 235.922 59.2812C235.76 59.1972 235.578 59.0992 235.326 58.9641C235.094 58.8394 234.81 58.687 234.522 58.5397L232.032 63.4393ZM234.314 64.5381L234.315 70.0409C235.351 70.0435 237.197 69.8245 238.768 68.3543C240.449 66.7811 240.747 64.7959 240.699 63.5464C240.619 61.4824 239.58 59.6955 239.039 58.8207C237.677 56.6167 235.478 54.116 233.327 52.0362L229.513 55.9891L225.699 59.9419C227.522 61.7047 229.006 63.4817 229.693 64.5933C229.851 64.8489 229.902 64.9671 229.9 64.9607C229.896 64.9525 229.862 64.8712 229.824 64.7266C229.788 64.5886 229.727 64.317 229.713 63.9445C229.684 63.1959 229.857 61.6079 231.248 60.3062C232.529 59.1076 233.919 59.0344 234.314 59.0354L234.314 64.5381ZM229.513 55.9891L233.327 52.0362C231.182 49.9613 230.06 48.3003 229.029 46.7087C228.026 45.1596 226.675 42.889 224.284 40.9798L220.863 45.278L217.441 49.5761C218.159 50.1494 218.553 50.7393 219.808 52.6775C221.035 54.5732 222.684 57.0265 225.699 59.9419L229.513 55.9891ZM220.863 45.278L224.284 40.9798C224.095 40.829 223.862 40.6504 223.606 40.4781C223.437 40.3648 222.902 40.0057 222.177 39.749C221.854 39.6348 220.952 39.3375 219.777 39.4467C218.297 39.5842 216.427 40.4085 215.395 42.3883C214.594 43.9236 214.76 45.3335 214.83 45.7976C214.92 46.3917 215.086 46.8476 215.176 47.0744C215.481 47.845 215.937 48.4988 216.085 48.7128C216.331 49.07 216.621 49.4573 216.919 49.843C218.1 51.369 220.025 53.6442 222.08 55.9965C224.156 58.3739 226.448 60.9256 228.406 63.0359C230.225 64.9957 232.098 66.9513 233.161 67.8127L236.614 63.5396L240.066 59.2666C240.068 59.2683 239.967 59.1835 239.729 58.9553C239.509 58.7452 239.23 58.4693 238.895 58.1281C238.225 57.4464 237.39 56.567 236.452 55.5562C234.579 53.5374 232.361 51.0694 230.349 48.7651C228.315 46.4357 226.572 44.3673 225.603 43.1161C225.365 42.8076 225.212 42.5984 225.127 42.4764C224.945 42.2111 225.182 42.5027 225.398 43.0476C225.465 43.2178 225.617 43.6258 225.701 44.1808C225.765 44.6057 225.934 45.9854 225.144 47.4995C224.123 49.458 222.273 50.2702 220.821 50.4051C219.675 50.5117 218.81 50.2211 218.534 50.1235C217.902 49.8997 217.496 49.6125 217.496 49.6123C217.408 49.5531 217.382 49.5289 217.441 49.5761L220.863 45.278ZM236.614 63.5396L233.161 67.8127C233.22 67.8606 233.178 67.8312 233.083 67.7358C233.033 67.6855 232.943 67.5919 232.834 67.4586C232.731 67.333 232.558 67.1089 232.38 66.7966C232.214 66.5057 231.937 65.9575 231.788 65.2043C231.631 64.412 231.593 63.2421 232.138 61.9923C232.403 61.3829 232.767 60.8544 233.186 60.4162C233.598 59.9851 234.031 59.6752 234.418 59.4551C235.16 59.0336 235.831 58.8865 236.206 58.8272C236.606 58.764 236.929 58.7614 237.121 58.7666C237.325 58.7721 237.486 58.7896 237.588 58.8032C237.784 58.8294 237.91 58.8611 237.934 58.8674C237.987 58.8808 237.949 58.8735 237.824 58.8266C237.712 58.7846 237.604 58.7387 237.532 58.7054C237.498 58.6892 237.494 58.6864 237.517 58.6986C237.524 58.7023 237.635 58.7608 237.798 58.8711C237.879 58.9262 238.037 59.0364 238.226 59.1986C238.324 59.2822 238.457 59.4023 238.605 59.5579C238.748 59.7075 238.955 59.9418 239.169 60.2576C239.373 60.5589 239.677 61.0721 239.883 61.7732C240.098 62.5019 240.237 63.5481 239.922 64.7304C239.767 65.3127 239.521 65.8533 239.203 66.3355C238.888 66.8127 238.53 67.1926 238.182 67.4889C237.507 68.062 236.84 68.3469 236.42 68.49C235.985 68.6385 235.615 68.7023 235.377 68.733C235.128 68.7651 234.921 68.7736 234.777 68.7754C234.498 68.7787 234.287 68.7577 234.192 68.7469C234 68.725 233.899 68.6993 233.955 68.7117L235.141 63.3415L236.326 57.9712C236.091 57.9186 235.766 57.8528 235.408 57.812C235.23 57.7917 234.952 57.7666 234.618 57.7706C234.363 57.7736 233.669 57.7921 232.85 58.0718C232.105 58.3258 229.99 59.268 229.297 61.8733C228.981 63.0647 229.12 64.1209 229.338 64.8604C229.548 65.5724 229.857 66.0973 230.07 66.4112C230.477 67.0141 230.912 67.4004 231.094 67.5556C231.32 67.7494 231.524 67.894 231.66 67.9859C232.137 68.309 232.63 68.5486 232.91 68.6794C233.256 68.8403 233.63 68.9968 233.999 69.1347C234.354 69.2677 234.796 69.4177 235.259 69.5353C235.489 69.5937 235.803 69.6643 236.162 69.7122C236.445 69.75 237.125 69.8282 237.948 69.6982C238.374 69.6308 239.088 69.4703 239.864 69.0297C240.699 68.5554 241.646 67.7236 242.215 66.4174C242.774 65.1366 242.738 63.9295 242.573 63.0933C242.415 62.2963 242.118 61.6975 241.919 61.3489C241.532 60.6722 241.081 60.1987 240.857 59.9739C240.587 59.702 240.31 59.4638 240.066 59.2666L236.614 63.5396ZM235.141 63.3415L233.955 68.7117C234.274 68.7831 234.31 68.8122 234.182 68.7593C234.111 68.7305 233.914 68.6452 233.654 68.4791C233.41 68.3235 232.946 67.9926 232.492 67.4175C232.009 66.8043 231.505 65.8618 231.403 64.6358C231.301 63.4058 231.645 62.3834 232.036 61.682C232.691 60.5083 233.582 60.0215 233.6 60.0113C233.823 59.8779 233.727 59.9711 232.94 60.2012C232.278 60.3947 231.408 60.6066 230.369 60.8284C225.981 61.766 220.743 62.4713 218.422 62.8923L219.417 68.3069L220.411 73.7215C221.808 73.4679 228.242 72.5423 232.691 71.5918C233.862 71.3416 235.023 71.0654 236.048 70.7657C236.948 70.5025 238.192 70.0973 239.242 69.4712C239.673 69.2147 240.849 68.483 241.639 67.0672C242.097 66.2448 242.472 65.102 242.36 63.7526C242.248 62.4071 241.694 61.346 241.118 60.6153C240.123 59.3523 238.853 58.7933 238.34 58.5819C237.664 58.3037 236.96 58.1129 236.326 57.9712L235.141 63.3415ZM219.417 68.3069L217.887 63.0175C216.859 63.3129 215.958 63.4089 215.079 63.4402C214.604 63.457 214.182 63.4548 213.634 63.4563C213.153 63.4577 212.476 63.4611 211.795 63.5245L212.318 69.0037L212.841 74.4828C212.968 74.471 213.186 74.4633 213.694 74.4619C214.135 74.4606 214.794 74.4638 215.497 74.4388C216.974 74.3863 218.814 74.2091 220.946 73.5963L219.417 68.3069ZM212.318 69.0037L212.002 63.5092C211.458 63.5392 210.191 63.5347 208.328 63.8548L209.272 69.2783L210.216 74.7018C211.263 74.5217 211.563 74.5572 212.634 74.4981L212.318 69.0037Z" fill="#88B62C"/>
</svg>
