<svg width="83" height="83" viewBox="0 0 83 83" fill="none" xmlns="http://www.w3.org/2000/svg">
<path d="M41.1764 6.95218C40.633 6.92774 40.089 6.91577 39.545 6.91628C21.5243 6.91628 6.9165 20.3125 6.9165 36.8385C6.9165 53.3645 21.5243 66.7607 39.545 66.7607C57.5657 66.7607 72.1735 53.3645 72.1735 36.8385C72.1735 34.2562 71.8145 31.7487 71.1457 29.3579" stroke="#88B62C" stroke-width="4" stroke-linecap="round" stroke-linejoin="round"/>
<path d="M26.4937 45.8151C28.0134 47.6732 29.9839 49.1814 32.2492 50.2201C34.5145 51.2588 37.0124 51.7996 39.5451 51.7996C42.0778 51.7996 44.5758 51.2588 46.8411 50.2201C49.1064 49.1814 51.0769 47.6732 52.5965 45.8151M33.0194 29.3579H28.8006C27.3225 29.3579 25.9064 29.8965 24.8623 30.854M46.0708 29.3579H50.2897C51.7678 29.3579 53.1838 29.8965 54.2279 30.854" stroke="#88B62C" stroke-width="4" stroke-linecap="round" stroke-linejoin="round"/>
<path d="M52.2311 7.90678C55.2949 6.26704 57.9672 6.92832 59.5725 7.98159C60.2316 8.41247 60.5611 8.62791 60.7536 8.62791C60.9494 8.62791 61.2757 8.41247 61.9348 7.98159C63.5401 6.92832 66.2124 6.26704 69.2762 7.90678C73.296 10.0612 74.2031 17.1647 64.9366 23.1581C63.1682 24.2982 62.2839 24.8697 60.7536 24.8697C59.2234 24.8697 58.3391 24.3012 56.5739 23.1581C47.3042 17.1647 48.2113 10.0612 52.2344 7.90678H52.2311Z" stroke="#88B62C" stroke-width="4" stroke-linecap="round"/>
</svg>
