<svg width="50" height="50" viewBox="0 0 50 50" fill="none" xmlns="http://www.w3.org/2000/svg">
<path fill-rule="evenodd" clip-rule="evenodd" d="M25 4.16669C27.7359 4.16667 30.445 4.70553 32.9726 5.7525C35.5003 6.79947 37.7969 8.33403 39.7315 10.2686C41.666 12.2031 43.2006 14.4998 44.2476 17.0274C45.2946 19.555 45.8335 22.2641 45.8335 25C45.8335 36.5059 36.506 45.8334 25 45.8334C13.4942 45.8334 4.16675 36.5059 4.16675 25C4.16675 13.4941 13.4942 4.16669 25 4.16669ZM27.0835 27.0834H22.9167C17.759 27.0834 13.331 30.2071 11.4211 34.6662C14.443 38.9036 19.3989 41.6667 25 41.6667C30.6012 41.6667 35.5571 38.9036 38.5791 34.6659C36.6692 30.2071 32.2412 27.0834 27.0835 27.0834ZM25 10.4167C21.5483 10.4167 18.75 13.2149 18.75 16.6667C18.75 20.1184 21.5483 22.9167 25 22.9167C28.4518 22.9167 31.25 20.1184 31.25 16.6667C31.25 13.2149 28.4519 10.4167 25 10.4167Z" fill="black"/>
</svg>
