<svg width="66" height="66" viewBox="0 0 66 66" fill="none" xmlns="http://www.w3.org/2000/svg">
<path d="M24.2 30.8C21.2827 30.8 18.4848 29.6411 16.4219 27.5782C14.359 25.5153 13.2 22.7174 13.2 19.8V11C13.2 10.4165 13.4318 9.85697 13.8444 9.44439C14.257 9.03181 14.8166 8.80002 15.4 8.80002H17.6C18.1835 8.80002 18.7431 8.56824 19.1557 8.15566C19.5683 7.74308 19.8 7.1835 19.8 6.60002C19.8 6.01655 19.5683 5.45697 19.1557 5.04439C18.7431 4.63181 18.1835 4.40002 17.6 4.40002H15.4C13.6496 4.40002 11.9709 5.09538 10.7331 6.33312C9.4954 7.57086 8.80005 9.2496 8.80005 11V19.8C8.80288 22.2854 9.40895 24.733 10.5662 26.9326C11.7235 29.1322 13.3973 31.018 15.444 32.428C17.4124 34.16 19.0085 36.2738 20.1355 38.6412C21.2624 41.0085 21.8968 43.5802 22 46.2C22 50.2844 23.6225 54.2014 26.5106 57.0895C29.3987 59.9775 33.3157 61.6 37.4 61.6C41.4844 61.6 45.4014 59.9775 48.2895 57.0895C51.1776 54.2014 52.8 50.2844 52.8 46.2V43.692C54.8739 43.1566 56.6813 41.8831 57.8834 40.1104C59.0855 38.3377 59.5998 36.1874 59.3299 34.0626C59.06 31.9378 58.0245 29.9844 56.4174 28.5685C54.8102 27.1526 52.7419 26.3715 50.6 26.3715C48.4582 26.3715 46.3899 27.1526 44.7827 28.5685C43.1756 29.9844 42.1401 31.9378 41.8702 34.0626C41.6003 36.1874 42.1146 38.3377 43.3167 40.1104C44.5188 41.8831 46.3262 43.1566 48.4001 43.692V46.2C48.4001 49.1174 47.2411 51.9153 45.1782 53.9782C43.1153 56.0411 40.3174 57.2 37.4 57.2C34.4827 57.2 31.6848 56.0411 29.6219 53.9782C27.559 51.9153 26.4 49.1174 26.4 46.2C26.5089 43.5769 27.1501 41.0033 28.2847 38.6357C29.4193 36.2682 31.0236 34.1561 33 32.428C35.0386 31.0131 36.7039 29.1251 37.8534 26.9259C39.0028 24.7266 39.6021 22.2815 39.6 19.8V11C39.6 9.2496 38.9047 7.57086 37.667 6.33312C36.4292 5.09538 34.7505 4.40002 33 4.40002H30.8C30.2166 4.40002 29.657 4.63181 29.2444 5.04439C28.8318 5.45697 28.6 6.01655 28.6 6.60002C28.6 7.1835 28.8318 7.74308 29.2444 8.15566C29.657 8.56824 30.2166 8.80002 30.8 8.80002H33C33.5835 8.80002 34.1431 9.03181 34.5557 9.44439C34.9683 9.85697 35.2001 10.4165 35.2001 11V19.8C35.2001 21.2446 34.9155 22.675 34.3627 24.0095C33.8099 25.3441 32.9997 26.5568 31.9782 27.5782C30.9568 28.5996 29.7441 29.4099 28.4096 29.9627C27.075 30.5155 25.6446 30.8 24.2 30.8ZM50.6 39.6C49.4331 39.6 48.3139 39.1365 47.4888 38.3113C46.6636 37.4861 46.2001 36.367 46.2001 35.2C46.2001 34.0331 46.6636 32.9139 47.4888 32.0888C48.3139 31.2636 49.4331 30.8 50.6 30.8C51.767 30.8 52.8862 31.2636 53.7113 32.0888C54.5365 32.9139 55 34.0331 55 35.2C55 36.367 54.5365 37.4861 53.7113 38.3113C52.8862 39.1365 51.767 39.6 50.6 39.6Z" fill="#88B62C"/>
</svg>
