<svg width="49" height="49" viewBox="0 0 49 49" fill="none" xmlns="http://www.w3.org/2000/svg">
<path d="M38.7916 16.3333C37.3485 16.3306 35.951 16.8387 34.8466 17.7676C33.7422 18.6965 33.0022 19.9863 32.7577 21.4085C32.5131 22.8308 32.7798 24.2937 33.5105 25.5381C34.2412 26.7825 35.3888 27.7282 36.7499 28.2076V31.6458C36.7499 34.0825 35.782 36.4194 34.059 38.1424C32.336 39.8653 29.9991 40.8333 27.5624 40.8333C25.1257 40.8333 22.7889 39.8653 21.0659 38.1424C19.3429 36.4194 18.3749 34.0825 18.3749 31.6458V30.4412C21.2265 29.9576 23.8153 28.4811 25.6834 26.273C27.5515 24.0649 28.5787 21.2673 28.5833 18.375V6.12498C28.5833 5.5835 28.3681 5.06419 27.9853 4.6813C27.6024 4.29842 27.0831 4.08331 26.5416 4.08331H22.4583C21.9168 4.08331 21.3975 4.29842 21.0146 4.6813C20.6317 5.06419 20.4166 5.5835 20.4166 6.12498C20.4166 6.66646 20.6317 7.18577 21.0146 7.56866C21.3975 7.95154 21.9168 8.16665 22.4583 8.16665H24.4999V18.375C24.4999 20.5409 23.6395 22.6181 22.108 24.1497C20.5764 25.6812 18.4992 26.5416 16.3333 26.5416C14.1673 26.5416 12.0901 25.6812 10.5585 24.1497C9.027 22.6181 8.16659 20.5409 8.16659 18.375V8.16665H10.2083C10.7497 8.16665 11.269 7.95154 11.6519 7.56866C12.0348 7.18577 12.2499 6.66646 12.2499 6.12498C12.2499 5.5835 12.0348 5.06419 11.6519 4.6813C11.269 4.29842 10.7497 4.08331 10.2083 4.08331H6.12492C5.58343 4.08331 5.06413 4.29842 4.68124 4.6813C4.29836 5.06419 4.08325 5.5835 4.08325 6.12498V18.375C4.08781 21.2673 5.11496 24.0649 6.98309 26.273C8.85121 28.4811 11.44 29.9576 14.2916 30.4412V31.6458C14.2916 35.1655 15.6898 38.5409 18.1785 41.0297C20.6673 43.5185 24.0428 44.9166 27.5624 44.9166C31.0821 44.9166 34.4576 43.5185 36.9463 41.0297C39.4351 38.5409 40.8333 35.1655 40.8333 31.6458V28.2076C42.1944 27.7282 43.3419 26.7825 44.0726 25.5381C44.8033 24.2937 45.07 22.8308 44.8255 21.4085C44.581 19.9863 43.841 18.6965 42.7366 17.7676C41.6322 16.8387 40.2347 16.3306 38.7916 16.3333ZM38.7916 24.5C38.3878 24.5 37.993 24.3802 37.6573 24.1559C37.3215 23.9316 37.0599 23.6127 36.9053 23.2396C36.7508 22.8666 36.7104 22.456 36.7892 22.06C36.8679 21.664 37.0624 21.3002 37.3479 21.0146C37.6334 20.7291 37.9972 20.5347 38.3933 20.4559C38.7893 20.3771 39.1998 20.4175 39.5729 20.5721C39.946 20.7266 40.2648 20.9883 40.4892 21.324C40.7135 21.6598 40.8333 22.0545 40.8333 22.4583C40.8333 22.9998 40.6182 23.5191 40.2353 23.902C39.8524 24.2849 39.3331 24.5 38.7916 24.5Z" fill="#144A36"/>
</svg>
